<svg width="25" height="24" viewBox="0 0 25 24" fill="none" xmlns="http://www.w3.org/2000/svg">
<path d="M9.5 10.75C7.98 10.75 6.75 9.52 6.75 8C6.75 6.48 7.98 5.25 9.5 5.25C11.02 5.25 12.25 6.48 12.25 8C12.25 9.52 11.02 10.75 9.5 10.75ZM9.5 6.75C8.81 6.75 8.25 7.31 8.25 8C8.25 8.69 8.81 9.25 9.5 9.25C10.19 9.25 10.75 8.69 10.75 8C10.75 7.31 10.19 6.75 9.5 6.75Z" fill="#A72F3B"/>
<path d="M15.5 22.75H9.5C4.07 22.75 1.75 20.43 1.75 15V9C1.75 3.57 4.07 1.25 9.5 1.25H13.5C13.91 1.25 14.25 1.59 14.25 2C14.25 2.41 13.91 2.75 13.5 2.75H9.5C4.89 2.75 3.25 4.39 3.25 9V15C3.25 19.61 4.89 21.25 9.5 21.25H15.5C20.11 21.25 21.75 19.61 21.75 15V10C21.75 9.59 22.09 9.25 22.5 9.25C22.91 9.25 23.25 9.59 23.25 10V15C23.25 20.43 20.93 22.75 15.5 22.75Z" fill="#A72F3B"/>
<path d="M21.75 5.75H16.25C15.84 5.75 15.5 5.41 15.5 5C15.5 4.59 15.84 4.25 16.25 4.25H21.75C22.16 4.25 22.5 4.59 22.5 5C22.5 5.41 22.16 5.75 21.75 5.75Z" fill="#A72F3B"/>
<path d="M19 8.5C18.59 8.5 18.25 8.16 18.25 7.75V2.25C18.25 1.84 18.59 1.5 19 1.5C19.41 1.5 19.75 1.84 19.75 2.25V7.75C19.75 8.16 19.41 8.5 19 8.5Z" fill="#A72F3B"/>
<path d="M3.16999 19.6996C2.92999 19.6996 2.68999 19.5796 2.54999 19.3696C2.31999 19.0296 2.40999 18.5596 2.74999 18.3296L7.67999 15.0196C8.75999 14.2996 10.25 14.3796 11.23 15.2096L11.56 15.4996C12.06 15.9296 12.91 15.9296 13.4 15.4996L17.56 11.9296C18.63 11.0196 20.29 11.0196 21.36 11.9296L22.99 13.3296C23.3 13.5996 23.34 14.0696 23.07 14.3896C22.8 14.6996 22.33 14.7396 22.01 14.4696L20.38 13.0696C19.88 12.6396 19.03 12.6396 18.54 13.0696L14.38 16.6396C13.32 17.5496 11.65 17.5496 10.58 16.6396L10.25 16.3496C9.78999 15.9596 9.02999 15.9196 8.51999 16.2696L3.59999 19.5796C3.45999 19.6596 3.30999 19.6996 3.16999 19.6996Z" fill="#A72F3B"/>
</svg>
