<svg width="24" height="24" viewBox="0 0 24 24" fill="none" xmlns="http://www.w3.org/2000/svg">
<path d="M9 10.7501C7.48 10.7501 6.25 9.52006 6.25 8.00006C6.25 6.48006 7.48 5.25006 9 5.25006C10.52 5.25006 11.75 6.48006 11.75 8.00006C11.75 9.52006 10.52 10.7501 9 10.7501ZM9 6.75006C8.31 6.75006 7.75 7.31006 7.75 8.00006C7.75 8.69006 8.31 9.25006 9 9.25006C9.69 9.25006 10.25 8.69006 10.25 8.00006C10.25 7.31006 9.69 6.75006 9 6.75006Z" fill="#434343"/>
<path d="M15 22.7501H9C3.57 22.7501 1.25 20.4301 1.25 15.0001V9.00006C1.25 3.57006 3.57 1.25006 9 1.25006H12C12.41 1.25006 12.75 1.59006 12.75 2.00006C12.75 2.41006 12.41 2.75006 12 2.75006H9C4.39 2.75006 2.75 4.39006 2.75 9.00006V15.0001C2.75 19.6101 4.39 21.2501 9 21.2501H15C19.61 21.2501 21.25 19.6101 21.25 15.0001V11.0001C21.25 10.5901 21.59 10.2501 22 10.2501C22.41 10.2501 22.75 10.5901 22.75 11.0001V15.0001C22.75 20.4301 20.43 22.7501 15 22.7501Z" fill="#434343"/>
<path d="M18.94 8.36049C18.07 8.36049 16.03 7.29049 15.4 5.34049C14.97 3.99049 15.47 2.22049 17.03 1.72049C17.69 1.51049 18.38 1.60049 18.93 1.94049C19.47 1.60049 20.18 1.50049 20.85 1.72049C22.41 2.22049 22.91 3.99049 22.48 5.34049C21.85 7.33049 19.71 8.36049 18.94 8.36049ZM16.83 4.88049C17.26 6.21049 18.7 6.83049 18.96 6.86049C19.25 6.83049 20.66 6.13049 21.05 4.88049C21.26 4.21049 21.05 3.36049 20.39 3.14049C20.11 3.05049 19.74 3.10049 19.57 3.36049C19.43 3.57049 19.2 3.70049 18.96 3.70049C18.73 3.70049 18.48 3.59049 18.34 3.39049C18.13 3.10049 17.76 3.06049 17.5 3.14049C16.83 3.36049 16.62 4.21049 16.83 4.88049Z" fill="#434343"/>
<path d="M2.67002 19.6996C2.43002 19.6996 2.19002 19.5796 2.05002 19.3696C1.82002 19.0296 1.91002 18.5596 2.26002 18.3296L7.19002 15.0196C8.27002 14.2896 9.76002 14.3796 10.74 15.2096L11.07 15.4996C11.57 15.9296 12.42 15.9296 12.91 15.4996L17.07 11.9296C18.13 11.0196 19.8 11.0196 20.87 11.9296L22.5 13.3296C22.81 13.5996 22.85 14.0696 22.58 14.3896C22.31 14.6996 21.84 14.7396 21.52 14.4696L19.89 13.0696C19.39 12.6396 18.54 12.6396 18.04 13.0696L13.88 16.6396C12.82 17.5496 11.15 17.5496 10.08 16.6396L9.75002 16.3496C9.29002 15.9596 8.53002 15.9196 8.02002 16.2696L3.09002 19.5796C2.96002 19.6596 2.81002 19.6996 2.67002 19.6996Z" fill="#434343"/>
</svg>
