<svg width="25" height="24" viewBox="0 0 25 24" fill="none" xmlns="http://www.w3.org/2000/svg">
<path d="M17.7401 22.75H7.26005C4.46005 22.75 2.68005 21.08 2.52005 18.29L2.00005 10.04C1.92005 8.79 2.35005 7.59 3.21005 6.68C4.06005 5.77 5.26005 5.25 6.50005 5.25C6.82005 5.25 7.13005 5.06 7.28005 4.76L8.00005 3.33C8.59005 2.16 10.0701 1.25 11.3601 1.25H13.6501C14.9401 1.25 16.4101 2.16 17.0001 3.32L17.7201 4.78C17.8701 5.06 18.1701 5.25 18.5001 5.25C19.7401 5.25 20.9401 5.77 21.7901 6.68C22.6501 7.6 23.0801 8.79 23.0001 10.04L22.4801 18.3C22.3001 21.13 20.5701 22.75 17.7401 22.75ZM11.3601 2.75C10.6201 2.75 9.68005 3.33 9.34005 4L8.62005 5.44C8.20005 6.25 7.39005 6.75 6.50005 6.75C5.66005 6.75 4.88005 7.09 4.30005 7.7C3.73005 8.31 3.44005 9.11 3.50005 9.94L4.02005 18.2C4.14005 20.22 5.23005 21.25 7.26005 21.25H17.7401C19.7601 21.25 20.8501 20.22 20.9801 18.2L21.5001 9.94C21.5501 9.11 21.2701 8.31 20.7001 7.7C20.1201 7.09 19.3401 6.75 18.5001 6.75C17.6101 6.75 16.8001 6.25 16.3801 5.46L15.6501 4C15.3201 3.34 14.3801 2.76 13.6401 2.76H11.3601V2.75Z" fill="white"/>
<path d="M14 8.75H11C10.59 8.75 10.25 8.41 10.25 8C10.25 7.59 10.59 7.25 11 7.25H14C14.41 7.25 14.75 7.59 14.75 8C14.75 8.41 14.41 8.75 14 8.75Z" fill="white"/>
<path d="M12.5 18.75C10.29 18.75 8.5 16.96 8.5 14.75C8.5 12.54 10.29 10.75 12.5 10.75C14.71 10.75 16.5 12.54 16.5 14.75C16.5 16.96 14.71 18.75 12.5 18.75ZM12.5 12.25C11.12 12.25 10 13.37 10 14.75C10 16.13 11.12 17.25 12.5 17.25C13.88 17.25 15 16.13 15 14.75C15 13.37 13.88 12.25 12.5 12.25Z" fill="white"/>
</svg>
