<svg width="24" height="24" viewBox="0 0 24 24" fill="none" xmlns="http://www.w3.org/2000/svg">
<path d="M12 12.7501C8.83 12.7501 6.25 10.1701 6.25 7.00012C6.25 3.83012 8.83 1.25012 12 1.25012C15.17 1.25012 17.75 3.83012 17.75 7.00012C17.75 10.1701 15.17 12.7501 12 12.7501ZM12 2.75012C9.66 2.75012 7.75 4.66012 7.75 7.00012C7.75 9.34012 9.66 11.2501 12 11.2501C14.34 11.2501 16.25 9.34012 16.25 7.00012C16.25 4.66012 14.34 2.75012 12 2.75012Z" fill="#434343"/>
<path d="M3.41016 22.7501C3.00016 22.7501 2.66016 22.4101 2.66016 22.0001C2.66016 17.7301 6.85015 14.2501 12.0002 14.2501C13.0102 14.2501 14.0001 14.3801 14.9601 14.6501C15.3601 14.7601 15.5902 15.1701 15.4802 15.5701C15.3702 15.9701 14.9602 16.2001 14.5602 16.0901C13.7402 15.8601 12.8802 15.7501 12.0002 15.7501C7.68015 15.7501 4.16016 18.5501 4.16016 22.0001C4.16016 22.4101 3.82016 22.7501 3.41016 22.7501Z" fill="#434343"/>
<path d="M18 22.7501C16.34 22.7501 14.78 21.8701 13.94 20.4401C13.49 19.7201 13.25 18.8701 13.25 18.0001C13.25 16.5401 13.9 15.1901 15.03 14.2901C15.87 13.6201 16.93 13.2501 18 13.2501C20.62 13.2501 22.75 15.3801 22.75 18.0001C22.75 18.8701 22.51 19.7201 22.06 20.4501C21.81 20.8701 21.49 21.2501 21.11 21.5701C20.28 22.3301 19.17 22.7501 18 22.7501ZM18 14.7501C17.26 14.7501 16.56 15.0001 15.97 15.4701C15.2 16.0801 14.75 17.0101 14.75 18.0001C14.75 18.5901 14.91 19.1701 15.22 19.6701C15.8 20.6501 16.87 21.2501 18 21.2501C18.79 21.2501 19.55 20.9601 20.13 20.4401C20.39 20.2201 20.61 19.9601 20.77 19.6801C21.09 19.1701 21.25 18.5901 21.25 18.0001C21.25 16.2101 19.79 14.7501 18 14.7501Z" fill="#434343"/>
<path d="M17.4299 19.7397C17.2399 19.7397 17.0499 19.6697 16.8999 19.5197L15.9099 18.5297C15.6199 18.2397 15.6199 17.7597 15.9099 17.4697C16.1999 17.1797 16.6799 17.1797 16.9699 17.4697L17.4499 17.9497L19.0499 16.4697C19.3499 16.1897 19.8299 16.2097 20.1099 16.5097C20.3899 16.8097 20.3699 17.2897 20.0699 17.5697L17.9399 19.5397C17.7899 19.6697 17.6099 19.7397 17.4299 19.7397Z" fill="#434343"/>
</svg>
