<svg width="48" height="48" viewBox="0 0 48 48" fill="none" xmlns="http://www.w3.org/2000/svg">
<path d="M24 45.5C12.14 45.5 2.5 35.86 2.5 24C2.5 12.14 12.14 2.5 24 2.5C35.86 2.5 45.5 12.14 45.5 24C45.5 35.86 35.86 45.5 24 45.5ZM24 5.5C13.8 5.5 5.5 13.8 5.5 24C5.5 34.2 13.8 42.5 24 42.5C34.2 42.5 42.5 34.2 42.5 24C42.5 13.8 34.2 5.5 24 5.5Z" fill="#86262F"/>
<path d="M31 25.5H19C18.18 25.5 17.5 24.82 17.5 24C17.5 23.18 18.18 22.5 19 22.5H31C31.82 22.5 32.5 23.18 32.5 24C32.5 24.82 31.82 25.5 31 25.5Z" fill="#86262F"/>
<path d="M22.9999 31.5009C22.6199 31.5009 22.2399 31.3609 21.9399 31.0609L15.9399 25.0609C15.3599 24.4809 15.3599 23.5209 15.9399 22.9409L21.9399 16.9409C22.5199 16.3609 23.4799 16.3609 24.0599 16.9409C24.6399 17.5209 24.6399 18.4809 24.0599 19.0609L19.1199 24.0009L24.0599 28.9409C24.6399 29.5209 24.6399 30.4809 24.0599 31.0609C23.7599 31.3609 23.3799 31.5009 22.9999 31.5009Z" fill="#86262F"/>
</svg>
