<svg width="20" height="20" viewBox="0 0 20 20" fill="none" xmlns="http://www.w3.org/2000/svg">
<path d="M9.99996 18.9583C5.05829 18.9583 1.04163 14.9416 1.04163 9.99996C1.04163 5.05829 5.05829 1.04163 9.99996 1.04163C14.9416 1.04163 18.9583 5.05829 18.9583 9.99996C18.9583 14.9416 14.9416 18.9583 9.99996 18.9583ZM9.99996 2.29163C5.74996 2.29163 2.29163 5.74996 2.29163 9.99996C2.29163 14.25 5.74996 17.7083 9.99996 17.7083C14.25 17.7083 17.7083 14.25 17.7083 9.99996C17.7083 5.74996 14.25 2.29163 9.99996 2.29163Z" fill="#B95962"/>
<path d="M13.3333 10.625H6.66663C6.32496 10.625 6.04163 10.3417 6.04163 10C6.04163 9.65833 6.32496 9.375 6.66663 9.375H13.3333C13.675 9.375 13.9583 9.65833 13.9583 10C13.9583 10.3417 13.675 10.625 13.3333 10.625Z" fill="#B95962"/>
<path d="M10 13.9584C9.65833 13.9584 9.375 13.675 9.375 13.3334V6.66669C9.375 6.32502 9.65833 6.04169 10 6.04169C10.3417 6.04169 10.625 6.32502 10.625 6.66669V13.3334C10.625 13.675 10.3417 13.9584 10 13.9584Z" fill="#B95962"/>
</svg>
