<svg width="25" height="24" viewBox="0 0 25 24" fill="none" xmlns="http://www.w3.org/2000/svg">
<path d="M13.55 16.2502H11.67C10.34 16.2502 9.25 15.1302 9.25 13.7502C9.25 13.3402 9.59 13.0002 10 13.0002C10.41 13.0002 10.75 13.3402 10.75 13.7502C10.75 14.3002 11.16 14.7502 11.67 14.7502H13.55C13.94 14.7502 14.25 14.4002 14.25 13.9702C14.25 13.4302 14.1 13.3502 13.76 13.2302L10.75 12.1802C10.11 11.9502 9.25 11.4902 9.25 10.0202C9.25 8.77023 10.24 7.74023 11.45 7.74023H13.33C14.66 7.74023 15.75 8.86023 15.75 10.2402C15.75 10.6502 15.41 10.9902 15 10.9902C14.59 10.9902 14.25 10.6502 14.25 10.2402C14.25 9.69023 13.84 9.24023 13.33 9.24023H11.45C11.06 9.24023 10.75 9.59023 10.75 10.0202C10.75 10.5602 10.9 10.6402 11.24 10.7602L14.25 11.8102C14.89 12.0402 15.75 12.5002 15.75 13.9702C15.75 15.2302 14.76 16.2502 13.55 16.2502Z" fill="#E5C1C4"/>
<path d="M12.5 17.25C12.09 17.25 11.75 16.91 11.75 16.5V7.5C11.75 7.09 12.09 6.75 12.5 6.75C12.91 6.75 13.25 7.09 13.25 7.5V16.5C13.25 16.91 12.91 17.25 12.5 17.25Z" fill="#E5C1C4"/>
<path d="M12.5 22.75C6.57 22.75 1.75 17.93 1.75 12C1.75 6.07 6.57 1.25 12.5 1.25C12.91 1.25 13.25 1.59 13.25 2C13.25 2.41 12.91 2.75 12.5 2.75C7.4 2.75 3.25 6.9 3.25 12C3.25 17.1 7.4 21.25 12.5 21.25C17.6 21.25 21.75 17.1 21.75 12C21.75 11.59 22.09 11.25 22.5 11.25C22.91 11.25 23.25 11.59 23.25 12C23.25 17.93 18.43 22.75 12.5 22.75Z" fill="#E5C1C4"/>
<path d="M22.5 6.75C22.09 6.75 21.75 6.41 21.75 6V2.75H18.5C18.09 2.75 17.75 2.41 17.75 2C17.75 1.59 18.09 1.25 18.5 1.25H22.5C22.91 1.25 23.25 1.59 23.25 2V6C23.25 6.41 22.91 6.75 22.5 6.75Z" fill="#E5C1C4"/>
<path d="M17.4999 7.75043C17.3099 7.75043 17.1199 7.68043 16.9699 7.53043C16.6799 7.24043 16.6799 6.76043 16.9699 6.47043L21.9699 1.47043C22.2599 1.18043 22.7399 1.18043 23.0299 1.47043C23.3199 1.76043 23.3199 2.24043 23.0299 2.53043L18.0299 7.53043C17.8799 7.68043 17.6899 7.75043 17.4999 7.75043Z" fill="#E5C1C4"/>
</svg>
