<svg width="25" height="24" viewBox="0 0 25 24" fill="none" xmlns="http://www.w3.org/2000/svg">
<path d="M12.0449 21.75C6.39492 21.75 1.79492 17.15 1.79492 11.5C1.79492 5.85 6.39492 1.25 12.0449 1.25C17.6949 1.25 22.2949 5.85 22.2949 11.5C22.2949 17.15 17.6949 21.75 12.0449 21.75ZM12.0449 2.75C7.21492 2.75 3.29492 6.68 3.29492 11.5C3.29492 16.32 7.21492 20.25 12.0449 20.25C16.8749 20.25 20.7949 16.32 20.7949 11.5C20.7949 6.68 16.8749 2.75 12.0449 2.75Z" fill="#A72F3B"/>
<path d="M22.5449 22.7504C22.3549 22.7504 22.1649 22.6804 22.0149 22.5304L20.0149 20.5304C19.7249 20.2404 19.7249 19.7604 20.0149 19.4704C20.3049 19.1804 20.7849 19.1804 21.0749 19.4704L23.0749 21.4704C23.3649 21.7604 23.3649 22.2404 23.0749 22.5304C22.9249 22.6804 22.7349 22.7504 22.5449 22.7504Z" fill="#A72F3B"/>
</svg>
