<svg width="520" height="512" viewBox="0 0 520 512" fill="none" xmlns="http://www.w3.org/2000/svg">
<path d="M498.088 346.485C447.648 461.949 313.29 526.633 196.774 509.185C177.814 506.345 125.836 497.888 79.8167 457.989C-8.77377 381.179 -27.7194 229.087 43.7437 121.904C95.7563 43.8934 188.994 -0.328192 277.589 1.8839C296.672 2.36036 369.807 5.29676 434.08 56.8222C443.52 64.3903 464.342 82.3741 483.107 110.904C527.172 177.898 530.959 271.236 498.088 346.485Z" fill="#F0F0F0"/>
<g opacity="0.3">
<path d="M320.932 77.2304C319.903 77.1897 319.102 76.3445 319.145 75.3441C319.226 73.3998 319.223 71.4231 319.134 69.4688C319.089 68.4801 319.867 67.6414 320.878 67.579C320.89 67.5782 320.902 67.5775 320.915 67.5768C321.944 67.5323 322.815 68.3077 322.861 69.3085C322.954 71.3655 322.958 73.4463 322.872 75.4931C322.833 76.429 322.069 77.1702 321.129 77.2282C321.064 77.2321 320.998 77.2334 320.932 77.2304ZM318.028 59.9859C317.666 58.0627 317.216 56.1364 316.69 54.2587C316.419 53.2931 317.005 52.2958 317.999 52.0321C318.997 51.771 320.018 52.3391 320.289 53.3054C320.843 55.2806 321.317 57.3084 321.698 59.3319C321.884 60.317 321.212 61.2622 320.199 61.4425C320.126 61.4555 320.052 61.4643 319.979 61.4687C319.049 61.5264 318.201 60.8994 318.028 59.9859ZM313.457 45.2526C312.666 43.461 311.785 41.6811 310.838 39.9615C310.352 39.0787 310.694 37.9794 311.602 37.5066C312.51 37.0353 313.64 37.3667 314.127 38.2495C315.124 40.0604 316.052 41.9352 316.885 43.8216C317.291 44.742 316.853 45.8082 315.907 46.2037C315.705 46.2878 315.497 46.3348 315.289 46.3477C314.525 46.3948 313.777 45.9768 313.457 45.2526ZM305.612 31.8835C304.427 30.3071 303.158 28.7628 301.841 27.2924C301.164 26.5371 301.245 25.3914 302.022 24.7337C302.799 24.0768 303.977 24.1559 304.654 24.9098C306.041 26.4581 307.377 28.0843 308.624 29.7428C309.232 30.5515 309.05 31.6861 308.218 32.277C307.921 32.4883 307.58 32.6018 307.238 32.6229C306.623 32.6607 306.002 32.4024 305.612 31.8835ZM294.898 20.5467C293.387 19.2687 291.797 18.0352 290.174 16.8818C289.343 16.29 289.162 15.1555 289.77 14.3471C290.378 13.5379 291.545 13.3622 292.376 13.9542C294.084 15.1676 295.756 16.4655 297.346 17.8105C298.124 18.4674 298.206 19.6129 297.529 20.3686C297.189 20.7496 296.721 20.9588 296.24 20.9883C295.768 21.0177 295.284 20.8728 294.898 20.5467ZM281.871 11.7973C280.104 10.8744 278.274 10.0142 276.432 9.2399C275.487 8.84258 275.051 7.7749 275.46 6.85595C275.869 5.93627 276.966 5.51306 277.912 5.91038C279.851 6.72486 281.777 7.63096 283.637 8.60205C284.545 9.07631 284.885 10.1754 284.398 11.058C284.081 11.6312 283.493 11.9712 282.871 12.0096C282.535 12.0303 282.19 11.9637 281.871 11.7973ZM212.609 10.9529C212.125 10.0694 212.468 8.97073 213.378 8.49941C215.24 7.53419 217.171 6.63489 219.116 5.82702C220.064 5.43356 221.16 5.86136 221.564 6.78251C221.969 7.70293 221.529 8.76858 220.582 9.16205C218.734 9.92916 216.901 10.7833 215.133 11.7C214.89 11.8258 214.632 11.8941 214.374 11.9101C213.667 11.9538 212.965 11.6011 212.609 10.9529ZM267.183 6.07618C265.25 5.55877 263.27 5.11665 261.298 4.76266C260.285 4.58034 259.616 3.63421 259.803 2.64953C259.99 1.66412 260.963 1.01856 261.976 1.19592C264.053 1.56901 266.138 2.03446 268.173 2.57958C269.166 2.84544 269.75 3.84371 269.476 4.80966C269.26 5.57549 268.569 6.09087 267.796 6.13842C267.595 6.15091 267.388 6.13089 267.183 6.07618ZM227.566 4.75899C227.297 3.79249 227.886 2.79642 228.88 2.53496C230.917 1.99975 233.005 1.54294 235.085 1.17609C236.099 0.992855 237.069 1.652 237.253 2.63723C237.437 3.62247 236.764 4.5662 235.751 4.74522C233.774 5.0937 231.789 5.52775 229.854 6.0367C229.73 6.0692 229.606 6.08812 229.483 6.09583C228.617 6.14926 227.801 5.60541 227.566 4.75899ZM251.551 3.69058C249.548 3.60686 247.516 3.60594 245.51 3.68856C244.48 3.73152 243.611 2.95469 243.567 1.95367C243.524 0.966051 244.302 0.129536 245.312 0.06711C245.325 0.0663755 245.338 0.065457 245.351 0.065457C247.464 -0.0223068 249.603 -0.0215728 251.711 0.066191C252.74 0.109889 253.538 0.955582 253.494 1.95642C253.453 2.89098 252.691 3.62999 251.751 3.68801C251.685 3.69223 251.618 3.69279 251.551 3.69058Z" fill="#86B1F2"/>
<path d="M203.423 18.8958C203.789 18.8732 204.153 18.7457 204.463 18.5065C205.216 17.9248 205.994 17.3494 206.775 16.7944C207.608 16.2043 207.79 15.0694 207.183 14.2608C206.576 13.4515 205.408 13.273 204.576 13.8651C203.754 14.4483 202.936 15.0538 202.143 15.6656C201.336 16.2882 201.201 17.4293 201.842 18.2133C202.237 18.6971 202.834 18.9321 203.423 18.8958Z" fill="#86B1F2"/>
</g>
<g opacity="0.3">
<path d="M176.229 67.4564C177.127 67.401 177.877 66.7187 177.966 65.8196C178.057 64.8891 178.17 63.9444 178.302 63.0128C178.443 62.0204 177.729 61.1053 176.709 60.9689C175.684 60.8319 174.747 61.5265 174.606 62.5184C174.468 63.4992 174.348 64.494 174.252 65.4739C174.154 66.4708 174.905 67.3564 175.931 67.452C176.032 67.4614 176.131 67.4625 176.229 67.4564Z" fill="#86B1F2"/>
<path d="M249.401 144.883C248.371 144.898 247.524 144.098 247.509 143.096C247.495 142.094 248.317 141.273 249.348 141.257C251.309 141.229 253.299 141.12 255.286 140.932C256.306 140.832 257.224 141.565 257.323 142.562C257.423 143.559 256.673 144.445 255.647 144.543C254.786 144.624 253.927 144.691 253.071 144.744C251.849 144.82 250.614 144.867 249.401 144.883ZM263.43 141.574C263.192 140.6 263.812 139.622 264.815 139.392C266.739 138.948 268.665 138.421 270.539 137.824C271.516 137.51 272.572 138.031 272.892 138.983C273.213 139.934 272.679 140.958 271.701 141.27C269.728 141.899 267.7 142.454 265.675 142.92C265.57 142.944 265.465 142.959 265.361 142.966C264.47 143.021 263.643 142.446 263.43 141.574ZM239.251 144.348C237.192 144.102 235.114 143.766 233.078 143.349C232.07 143.143 231.424 142.181 231.636 141.201C231.848 140.221 232.837 139.595 233.845 139.799C235.78 140.195 237.752 140.514 239.708 140.748C240.73 140.871 241.457 141.776 241.331 142.771C241.219 143.65 240.477 144.304 239.6 144.358C239.486 144.365 239.369 144.363 239.251 144.348ZM278.629 136.721C278.177 135.821 278.561 134.734 279.487 134.295C281.261 133.453 283.02 132.527 284.714 131.543C285.599 131.029 286.743 131.309 287.272 132.17C287.8 133.029 287.512 134.142 286.628 134.656C284.844 135.693 282.992 136.668 281.123 137.555C280.897 137.662 280.66 137.721 280.424 137.736C279.692 137.781 278.97 137.401 278.629 136.721ZM223.305 140.657C221.353 139.976 219.404 139.204 217.511 138.363C216.574 137.946 216.161 136.871 216.589 135.96C217.017 135.048 218.125 134.648 219.061 135.064C220.86 135.863 222.711 136.596 224.565 137.243C225.535 137.581 226.039 138.62 225.691 139.563C225.431 140.265 224.772 140.716 224.052 140.76C223.806 140.776 223.552 140.743 223.305 140.657ZM208.578 133.655C206.822 132.573 205.093 131.406 203.438 130.188C202.617 129.582 202.455 128.445 203.077 127.647C203.7 126.847 204.87 126.691 205.69 127.297C207.263 128.455 208.907 129.563 210.575 130.592C211.446 131.128 211.704 132.248 211.152 133.094C210.82 133.604 210.269 133.898 209.694 133.933C209.314 133.957 208.924 133.868 208.578 133.655ZM195.77 123.699C194.298 122.27 192.871 120.765 191.529 119.225C190.863 118.461 190.961 117.317 191.746 116.669C192.533 116.021 193.709 116.117 194.375 116.881C195.65 118.344 197.006 119.773 198.406 121.131C199.135 121.839 199.136 122.987 198.409 123.696C198.074 124.022 197.645 124.198 197.207 124.225C196.691 124.257 196.165 124.081 195.77 123.699ZM185.502 111.264C184.386 109.556 183.332 107.783 182.371 105.993C181.893 105.105 182.247 104.009 183.16 103.545C184.072 103.082 185.2 103.426 185.677 104.314C186.59 106.013 187.591 107.697 188.651 109.319C189.203 110.164 188.946 111.284 188.077 111.822C187.802 111.991 187.5 112.082 187.196 112.101C186.539 112.142 185.88 111.842 185.502 111.264ZM178.291 96.931C177.591 95.0314 176.966 93.0775 176.432 91.123C176.168 90.1549 176.761 89.1614 177.757 88.9047C178.749 88.6489 179.774 89.224 180.038 90.1921C180.545 92.0489 181.139 93.9047 181.803 95.7091C182.15 96.6516 181.646 97.6901 180.676 98.0273C180.507 98.0861 180.335 98.1201 180.165 98.1307C179.356 98.1807 178.577 97.7097 178.291 96.931ZM174.497 81.4251C174.307 79.9498 174.162 78.4503 174.065 76.9694C174.03 76.4329 174.001 75.898 173.978 75.3634C173.936 74.3631 174.721 73.499 175.764 73.4766C176.793 73.4344 177.663 74.212 177.706 75.213C177.728 75.7207 177.755 76.23 177.788 76.7397C177.88 78.1479 178.018 79.5725 178.198 80.9755C178.326 81.9691 177.601 82.8754 176.579 82.9997C176.54 83.0041 176.502 83.008 176.464 83.0104C175.488 83.0704 174.619 82.3815 174.497 81.4251Z" fill="#86B1F2"/>
<path d="M293.966 129.38C294.336 129.357 294.703 129.227 295.014 128.985C295.802 128.371 296.591 127.729 297.36 127.077C298.136 126.418 298.217 125.273 297.54 124.518C296.862 123.763 295.685 123.684 294.908 124.343C294.177 124.963 293.428 125.573 292.68 126.156C291.876 126.782 291.747 127.923 292.392 128.705C292.787 129.184 293.381 129.416 293.966 129.38Z" fill="#86B1F2"/>
</g>
<path d="M297.491 98.4696C297.708 98.1753 297.709 97.7804 297.493 97.4855L291.348 89.0756C293.237 84.6215 294.408 79.8427 294.743 74.8958L304.067 69.9858C304.394 69.8136 304.573 69.4585 304.512 69.1018L302.43 56.8949C302.369 56.5382 302.082 56.258 301.715 56.1977L291.26 54.4768C289.3 49.8997 286.605 45.7441 283.339 42.1214L286.363 32.2335C286.469 31.8868 286.337 31.513 286.034 31.3026L275.683 24.1023C275.381 23.8919 274.974 23.8911 274.671 24.1006L266.021 30.075C261.44 28.2389 256.524 27.0998 251.436 26.7743L246.386 17.7093C246.208 17.3913 245.843 17.2176 245.476 17.2769L232.92 19.3012C232.553 19.3605 232.266 19.6394 232.203 19.9959L230.433 30.1607C225.725 32.0658 221.451 34.6864 217.725 37.8619L207.554 34.9218C207.198 34.8188 206.813 34.9468 206.597 35.2411L199.19 45.3042C198.974 45.5982 198.973 45.9935 199.189 46.2882L205.334 54.6981C203.445 59.152 202.274 63.9307 201.939 68.8778L192.615 73.7878C192.288 73.9598 192.109 74.3149 192.17 74.6717L194.252 86.8789C194.313 87.2357 194.6 87.5155 194.967 87.5759L205.422 89.297C207.382 93.8741 210.077 98.0295 213.343 101.652L210.319 111.54C210.213 111.887 210.345 112.261 210.648 112.471L220.999 119.672C221.301 119.882 221.708 119.883 222.011 119.673L230.661 113.699C235.242 115.535 240.158 116.674 245.246 117L250.297 126.065C250.474 126.382 250.839 126.556 251.206 126.497L263.762 124.472C264.129 124.413 264.417 124.134 264.479 123.778L266.249 113.613C270.957 111.708 275.231 109.087 278.957 105.912L289.128 108.852C289.484 108.955 289.869 108.827 290.085 108.533L297.491 98.4696Z" fill="#86B1F2"/>
<path d="M247.282 84.2702C240.252 83.7018 235.008 77.6799 235.592 70.8444C235.875 67.5334 237.468 64.5278 240.076 62.3814C242.683 60.2351 245.995 59.2037 249.401 59.4799C256.432 60.0483 261.675 66.0704 261.091 72.9057C260.559 79.1239 255.384 83.9043 249.161 84.2884C248.544 84.3264 247.916 84.3213 247.282 84.2702ZM242.004 64.5963C240.004 66.2423 238.784 68.5464 238.566 71.0853C238.119 76.325 242.139 80.9433 247.529 81.3788C252.92 81.8163 257.669 77.9053 258.117 72.6648C258.565 67.4251 254.544 62.8066 249.154 62.3713C248.666 62.3318 248.18 62.3278 247.699 62.3574C245.612 62.4863 243.63 63.2589 242.004 64.5963Z" fill="#E5C1C4"/>
<path d="M250.07 102.239C251.139 102.173 252.211 102.055 253.282 101.882C253.619 101.828 253.955 101.768 254.29 101.703C255.943 101.383 257.567 100.936 259.138 100.369C259.159 100.361 259.18 100.353 259.202 100.346C259.262 100.323 259.323 100.301 259.384 100.278C259.502 100.235 259.619 100.19 259.736 100.145C260.045 100.027 260.227 99.7308 260.207 99.4253C260.202 99.3511 260.185 99.2762 260.156 99.2035C260.004 98.8309 259.57 98.6497 259.188 98.796C257.216 99.5545 255.147 100.111 253.038 100.45C242.563 102.141 232.436 98.3025 225.818 91.1387C222.136 87.1547 219.54 82.1411 218.574 76.4767C218.405 75.4834 218.288 74.4892 218.224 73.4979C217.789 66.8271 219.711 60.2683 223.766 54.759C228.423 48.4305 235.337 44.2439 243.233 42.9709C259.54 40.3433 274.994 51.0981 277.697 66.9444C277.863 67.9214 277.979 68.9031 278.042 69.885C278.319 74.1403 277.636 78.4073 276.025 82.3772C275.983 82.4799 275.967 82.586 275.974 82.6892C275.992 82.9607 276.167 83.2117 276.445 83.318C276.829 83.464 277.262 83.2833 277.413 82.9092C279.104 78.7411 279.822 74.2611 279.531 69.7938C279.465 68.763 279.344 67.7328 279.169 66.7072C276.331 50.0697 260.096 38.7812 242.989 41.539C234.7 42.8754 227.442 47.2704 222.553 53.9142C218.296 59.6978 216.278 66.5832 216.734 73.5865C216.802 74.6272 216.925 75.6708 217.102 76.7132C218.477 84.7727 222.997 91.8289 229.831 96.5823C235.781 100.722 242.865 102.684 250.07 102.239Z" fill="#E5C1C4"/>
<g opacity="0.3">
<path d="M387.77 121.007C388.267 120.976 388.705 120.633 388.82 120.136C389.036 119.208 389.225 118.262 389.383 117.322C389.486 116.712 389.06 116.137 388.432 116.036C387.804 115.934 387.212 116.351 387.109 116.961C386.959 117.856 386.778 118.758 386.573 119.643C386.432 120.246 386.822 120.845 387.442 120.982C387.553 121.006 387.662 121.014 387.77 121.007Z" fill="#86B1F2"/>
<path d="M388.802 112.467C388.166 112.443 387.671 111.923 387.695 111.304C387.756 109.744 387.736 108.163 387.634 106.605C387.613 106.277 387.587 105.947 387.558 105.617C387.505 105.001 387.975 104.459 388.61 104.407C389.211 104.38 389.801 104.812 389.855 105.429C389.885 105.775 389.911 106.119 389.934 106.463C390.04 108.096 390.062 109.754 389.997 111.39C389.975 111.969 389.503 112.429 388.92 112.465C388.882 112.467 388.842 112.468 388.802 112.467ZM386.711 99.9884C386.312 98.1356 385.792 96.2902 385.164 94.5041C384.959 93.9184 385.28 93.2825 385.882 93.082C386.481 92.8839 387.139 93.194 387.345 93.7797C388.003 95.6516 388.549 97.5865 388.966 99.5292C389.097 100.135 388.697 100.728 388.074 100.856C388.02 100.867 387.965 100.873 387.91 100.877C387.348 100.911 386.83 100.54 386.711 99.9884ZM382.931 89.2461C382.078 87.5474 381.107 85.8832 380.044 84.2981C379.697 83.7804 379.847 83.0862 380.38 82.7485C380.914 82.4097 381.626 82.5553 381.974 83.0744C383.089 84.736 384.108 86.4827 385.002 88.2635C385.28 88.8194 385.043 89.4907 384.471 89.7615C384.332 89.8271 384.186 89.8636 384.04 89.8726C383.588 89.9005 383.142 89.6661 382.931 89.2461ZM376.551 79.7352C375.294 78.2893 373.933 76.9058 372.507 75.6259C372.04 75.2054 372.011 74.4969 372.443 74.0428C372.874 73.5899 373.603 73.5603 374.071 73.9797C375.566 75.3231 376.992 76.7729 378.311 78.2894C378.721 78.7617 378.66 79.4691 378.174 79.8685C377.978 80.0286 377.743 80.1154 377.505 80.1301C377.153 80.1518 376.796 80.0172 376.551 79.7352ZM367.975 72.0268C366.396 70.9219 364.731 69.9023 363.027 68.9947C362.469 68.6982 362.265 68.017 362.57 67.4743C362.876 66.9316 363.576 66.7316 364.134 67.0303C365.92 67.9811 367.665 69.0506 369.321 70.2076C369.837 70.5693 369.955 71.2689 369.584 71.7709C369.374 72.0545 369.053 72.2146 368.72 72.2352C368.464 72.2508 368.201 72.1838 367.975 72.0268ZM357.736 66.5757C355.929 65.8784 354.06 65.2846 352.181 64.8109C351.566 64.6559 351.195 64.0442 351.355 63.4458C351.515 62.8474 352.142 62.4887 352.76 62.6423C354.73 63.139 356.691 63.7621 358.586 64.4936C359.177 64.7224 359.467 65.3731 359.232 65.9476C359.062 66.3637 358.664 66.626 358.233 66.6527C358.069 66.6626 357.899 66.6391 357.736 66.5757ZM346.44 63.726C344.518 63.4818 342.555 63.352 340.605 63.3408C339.969 63.3362 339.456 62.8318 339.46 62.2134C339.464 61.5952 339.982 61.1061 340.62 61.0995C342.665 61.1125 344.723 61.2486 346.738 61.5045C347.369 61.5849 347.814 62.1471 347.732 62.7606C347.659 63.3 347.202 63.6997 346.663 63.733C346.59 63.7375 346.516 63.7357 346.44 63.726ZM327.612 63.8402C327.461 63.2391 327.84 62.6337 328.459 62.487C330.17 62.081 331.933 61.7597 333.695 61.5313C333.963 61.4952 334.23 61.4634 334.497 61.4326C335.124 61.3435 335.701 61.801 335.774 62.4169C335.847 63.0316 335.394 63.5866 334.762 63.6586C334.511 63.6861 334.26 63.7172 334.005 63.7515C332.318 63.9694 330.636 64.2761 329.004 64.6629C328.937 64.6791 328.869 64.6888 328.803 64.6928C328.256 64.7266 327.746 64.3756 327.612 63.8402Z" fill="#86B1F2"/>
</g>
<g opacity="0.3">
<path d="M342.73 157.788C340.725 157.887 338.696 157.866 336.7 157.73C336.066 157.685 335.587 157.15 335.632 156.533C335.677 155.915 336.232 155.457 336.863 155.494C338.766 155.626 340.702 155.645 342.615 155.55C343.25 155.519 343.791 155.995 343.823 156.612C343.855 157.225 343.374 157.748 342.746 157.787C342.746 157.787 342.735 157.788 342.73 157.788ZM347.397 156.227C347.29 155.617 347.711 155.038 348.337 154.933C350.224 154.617 352.109 154.188 353.942 153.655C354.548 153.48 355.194 153.814 355.375 154.408C355.558 155.001 355.211 155.624 354.602 155.802C352.681 156.36 350.705 156.81 348.728 157.141C348.687 157.148 348.646 157.152 348.604 157.155C348.025 157.191 347.498 156.797 347.397 156.227ZM330.717 156.958C328.745 156.582 326.78 156.086 324.878 155.483C324.273 155.292 323.942 154.659 324.139 154.071C324.336 153.483 324.984 153.163 325.591 153.352C327.406 153.928 329.28 154.401 331.161 154.76C331.785 154.879 332.191 155.468 332.069 156.074C331.966 156.585 331.522 156.945 331.012 156.977C330.916 156.983 330.817 156.977 330.717 156.958ZM358.751 153.202C358.495 152.636 358.761 151.975 359.343 151.727C361.096 150.979 362.818 150.12 364.463 149.172C365.01 148.857 365.717 149.033 366.041 149.563C366.366 150.095 366.186 150.783 365.638 151.098C363.914 152.093 362.107 152.995 360.268 153.778C360.141 153.832 360.009 153.862 359.879 153.87C359.41 153.899 358.951 153.645 358.751 153.202ZM319.27 153.331C317.453 152.507 315.67 151.566 313.968 150.534C313.428 150.207 313.263 149.516 313.6 148.991C313.936 148.466 314.647 148.305 315.187 148.633C316.81 149.618 318.511 150.515 320.244 151.3C320.82 151.561 321.07 152.228 320.8 152.789C320.616 153.173 320.236 153.408 319.829 153.433C319.643 153.445 319.451 153.413 319.27 153.331ZM309.05 147.139C307.486 145.913 305.985 144.584 304.589 143.19C304.145 142.747 304.155 142.038 304.611 141.607C305.066 141.175 305.796 141.184 306.24 141.628C307.572 142.957 309.004 144.225 310.496 145.394C310.992 145.782 311.069 146.488 310.67 146.969C310.459 147.224 310.157 147.365 309.845 147.384C309.568 147.401 309.283 147.321 309.05 147.139ZM300.649 138.745C299.432 137.191 298.302 135.55 297.291 133.869C296.97 133.334 297.155 132.649 297.705 132.337C298.254 132.024 298.96 132.206 299.281 132.738C300.244 134.341 301.321 135.906 302.483 137.387C302.868 137.88 302.77 138.583 302.264 138.957C302.076 139.097 301.859 139.17 301.64 139.184C301.268 139.207 300.892 139.055 300.649 138.745Z" fill="#86B1F2"/>
<path d="M370.046 148.001C370.268 147.987 370.488 147.911 370.677 147.769C371.457 147.183 372.222 146.571 372.953 145.952C373.432 145.545 373.482 144.837 373.064 144.371C372.645 143.907 371.919 143.858 371.438 144.263C370.742 144.854 370.011 145.437 369.267 145.997C368.763 146.376 368.671 147.08 369.06 147.568C369.304 147.874 369.677 148.024 370.046 148.001Z" fill="#86B1F2"/>
</g>
<path d="M373.103 126.906C373.248 126.709 373.248 126.445 373.104 126.248L368.992 120.62C370.256 117.64 371.04 114.442 371.264 111.132L377.503 107.846C377.722 107.731 377.841 107.493 377.801 107.255L376.407 99.0862C376.367 98.8474 376.175 98.6601 375.929 98.6199L368.933 97.4683C367.622 94.4056 365.818 91.6248 363.633 89.2005L365.656 82.5839C365.727 82.352 365.639 82.1017 365.436 81.9609L358.51 77.1429C358.308 77.0021 358.035 77.0015 357.832 77.1418L352.044 81.1396C348.979 79.9109 345.689 79.1488 342.284 78.9308L338.905 72.865C338.786 72.6522 338.542 72.536 338.297 72.5757L329.895 73.9303C329.649 73.97 329.456 74.1567 329.415 74.3952L328.23 81.1971C325.08 82.4719 322.22 84.2255 319.726 86.3504L312.921 84.383C312.682 84.3142 312.425 84.3998 312.28 84.5966L307.324 91.3305C307.179 91.5272 307.179 91.7917 307.323 91.9887L311.435 97.6165C310.171 100.597 309.387 103.794 309.163 107.105L302.924 110.391C302.705 110.506 302.585 110.743 302.626 110.982L304.019 119.151C304.06 119.389 304.252 119.577 304.498 119.617L311.494 120.768C312.805 123.831 314.609 126.612 316.794 129.036L314.771 135.653C314.7 135.885 314.788 136.135 314.99 136.276L321.917 141.094C322.119 141.235 322.391 141.235 322.594 141.095L328.382 137.097C331.448 138.326 334.737 139.088 338.142 139.306L341.521 145.372C341.64 145.584 341.884 145.701 342.13 145.661L350.532 144.306C350.777 144.267 350.97 144.08 351.011 143.841L352.196 137.04C355.346 135.765 358.206 134.011 360.7 131.886L367.506 133.854C367.744 133.923 368.001 133.837 368.146 133.64L373.103 126.906Z" fill="#86B1F2"/>
<path d="M339.493 117.568C337.172 117.381 335.066 116.326 333.563 114.598C332.059 112.872 331.337 110.678 331.53 108.423C331.928 103.767 336.141 100.302 340.937 100.681C345.726 101.069 349.297 105.172 348.898 109.826C348.706 112.081 347.621 114.129 345.845 115.591C344.401 116.779 342.639 117.465 340.785 117.58C340.358 117.606 339.926 117.602 339.493 117.568ZM333.826 108.608C333.684 110.267 334.215 111.88 335.322 113.151C336.427 114.421 337.977 115.197 339.683 115.335C341.39 115.471 343.049 114.956 344.356 113.881C345.663 112.806 346.461 111.299 346.603 109.641C346.895 106.216 344.268 103.199 340.746 102.913C340.428 102.888 340.114 102.885 339.805 102.905C336.686 103.097 334.092 105.493 333.826 108.608Z" fill="#E5C1C4"/>
<path d="M341.434 130.061C342.161 130.016 342.892 129.935 343.626 129.817C345.084 129.582 346.518 129.204 347.893 128.689C347.955 128.666 348.017 128.642 348.078 128.618C348.555 128.436 348.835 127.979 348.805 127.507C348.798 127.393 348.771 127.277 348.726 127.165C348.492 126.59 347.822 126.311 347.231 126.536C345.952 127.028 344.612 127.388 343.25 127.607H343.25C343.175 127.619 343.1 127.63 343.025 127.641C339.797 128.131 336.564 127.82 333.567 126.777C331.94 126.211 330.382 125.428 328.931 124.438C328.919 124.43 328.907 124.422 328.895 124.414C328.859 124.389 328.824 124.365 328.788 124.34C324.574 121.408 321.786 117.057 320.939 112.087C320.829 111.444 320.753 110.801 320.712 110.159C320.43 105.841 321.675 101.595 324.3 98.0276C327.315 93.9309 331.791 91.2214 336.902 90.3976C342.01 89.576 347.149 90.7342 351.364 93.6645C355.578 96.596 358.365 100.947 359.213 105.917C359.321 106.549 359.396 107.185 359.437 107.82C359.616 110.575 359.174 113.337 358.131 115.907C358.067 116.065 358.042 116.229 358.053 116.389C358.08 116.808 358.351 117.195 358.78 117.36C359.372 117.585 360.041 117.305 360.274 116.728C361.441 113.853 361.937 110.762 361.736 107.68C361.69 106.969 361.607 106.258 361.486 105.551C360.538 99.9901 357.419 95.1223 352.704 91.8424C347.99 88.5636 342.247 87.2607 336.525 88.187C330.806 89.1087 325.799 92.1402 322.426 96.7247C319.489 100.715 318.097 105.465 318.412 110.297C318.459 111.014 318.543 111.734 318.665 112.453C320.502 123.218 330.465 130.738 341.434 130.061Z" fill="#E5C1C4"/>
<path d="M516.055 236.963C516.026 235.341 515.329 233.798 514.121 232.68C512.912 231.562 511.293 230.962 509.625 231.013L374.698 235.205C371.264 235.312 368.567 238.101 368.669 241.44L375.326 458.691C375.428 461.988 378.223 464.6 381.615 464.568L513.83 463.318C515.491 463.302 517.076 462.643 518.235 461.486C519.393 460.328 520.028 458.769 520 457.155L516.055 236.963Z" fill="#CBCBCB"/>
<g opacity="0.43">
<path d="M501.978 247.585H381.825C380.656 247.585 379.718 248.191 379.731 249.269L379.845 259.468C379.857 260.55 380.821 261.717 381.993 261.718L502.488 261.812C503.681 261.813 504.605 260.554 504.566 259.462L504.201 249.294C504.163 248.207 503.168 247.585 501.978 247.585Z" fill="white"/>
<path d="M502.759 269.569L382.083 269.374C380.909 269.372 379.969 270.461 379.982 271.548L380.097 281.97C380.109 283.061 381.075 284.096 382.252 284.099L503.274 284.424C504.472 284.428 505.406 283.389 505.368 282.287L504.999 271.77C504.961 270.673 503.953 269.571 502.759 269.569Z" fill="white"/>
<path d="M503.572 293.064L382.35 292.663C381.171 292.659 380.221 293.188 380.234 294.284L380.35 304.798C380.362 305.899 381.33 306.731 382.512 306.736L504.064 307.262C505.268 307.267 506.214 306.436 506.175 305.325L505.803 294.714C505.764 293.608 504.773 293.067 503.572 293.064Z" fill="white"/>
<path d="M504.366 315.969L382.612 315.366C381.428 315.36 380.476 316.106 380.488 317.212L380.606 327.818C380.619 328.928 381.588 329.554 382.775 329.562L504.863 330.292C506.072 330.299 507.03 329.679 506.99 328.558L506.615 317.854C506.576 316.738 505.572 315.975 504.366 315.969Z" fill="white"/>
<path d="M505.167 339.088L382.875 338.279C381.686 338.272 380.733 339.239 380.745 340.354L380.864 351.054C380.877 352.174 381.857 353.388 383.049 353.397L505.696 354.343C506.91 354.352 507.852 353.142 507.812 352.011L507.434 341.211C507.394 340.085 506.378 339.096 505.167 339.088Z" fill="white"/>
<path d="M505.976 362.407L383.142 361.388C381.948 361.379 380.993 362.57 381.005 363.696L381.125 374.49C381.137 375.62 382.12 376.628 383.318 376.639L506.509 377.796C507.728 377.808 508.682 376.809 508.642 375.668L508.26 364.772C508.22 363.636 507.192 362.417 505.976 362.407Z" fill="white"/>
<path d="M506.819 386.744L383.42 385.506C382.22 385.493 381.254 386.106 381.267 387.242L381.388 398.132C381.4 399.272 382.385 400.07 383.588 400.083L507.329 401.456C508.554 401.469 509.52 400.686 509.479 399.535L509.094 388.541C509.054 387.395 508.041 386.756 506.819 386.744Z" fill="white"/>
<path d="M507.643 410.484L383.691 409.029C382.486 409.015 381.519 409.853 381.531 410.998L381.654 421.986C381.666 423.136 382.652 423.72 383.861 423.735L508.157 425.327C509.388 425.343 510.366 424.78 510.325 423.618L509.936 412.525C509.895 411.368 508.87 410.499 507.643 410.484Z" fill="white"/>
<path d="M508.472 434.439L383.964 432.763C382.754 432.747 381.784 433.814 381.797 434.97L381.92 446.056C381.933 447.217 382.931 448.409 384.145 448.427L509.02 450.25C510.257 450.268 511.218 449.093 511.176 447.921L510.784 436.727C510.743 435.56 509.705 434.456 508.472 434.439Z" fill="white"/>
</g>
<path d="M212.746 460.264C212.746 460.264 257.325 194.309 143.187 3.74995C141.699 1.26539 138.076 1.08453 136.362 3.42717C109.283 40.4304 -51.2226 281.137 212.746 460.264Z" fill="#3C8F7C"/>
<path opacity="0.52" d="M132.975 81.2545C132.975 81.2545 132.81 82.7151 132.581 85.4692C132.345 88.2215 132.047 92.2628 131.747 97.4117C131.426 102.559 131.176 108.818 130.964 115.997C130.901 119.589 130.78 123.409 130.776 127.438C130.759 129.452 130.741 131.517 130.723 133.632C130.731 135.747 130.739 137.911 130.747 140.121C130.743 142.331 130.778 144.587 130.828 146.885C130.87 149.183 130.914 151.525 130.958 153.907C131.039 156.288 131.121 158.709 131.204 161.168C131.246 162.397 131.288 163.636 131.33 164.884C131.391 166.13 131.452 167.386 131.514 168.65C131.641 171.179 131.769 173.742 131.899 176.337C132.047 178.931 132.243 181.553 132.415 184.206C132.731 189.513 133.209 194.924 133.655 200.43C133.855 203.185 134.184 205.952 134.451 208.744C134.741 211.534 134.996 214.348 135.321 217.172C135.662 219.994 136.005 222.834 136.35 225.687C136.522 227.114 136.695 228.544 136.868 229.978C137.07 231.408 137.273 232.841 137.476 234.277C137.884 237.149 138.293 240.032 138.704 242.924C139.114 245.815 139.636 248.699 140.098 251.598C140.587 254.492 141.022 257.401 141.558 260.296C142.1 263.19 142.643 266.087 143.186 268.984L143.989 273.33C144.261 274.779 144.586 276.216 144.882 277.658C145.488 280.54 146.093 283.419 146.697 286.293C147.268 289.173 147.985 292.017 148.651 294.862C149.325 297.706 149.997 300.542 150.667 303.366C152.093 308.994 153.62 314.55 155.067 320.055C156.69 325.513 158.292 330.905 159.867 336.208C161.595 341.467 163.293 346.637 164.956 351.698C166.766 356.712 168.538 361.617 170.262 366.391C172.08 371.132 173.959 375.704 175.717 380.149C176.165 381.257 176.59 382.363 177.045 383.447C177.518 384.522 177.988 385.588 178.453 386.644C179.383 388.756 180.296 390.828 181.19 392.859C182.084 394.889 182.959 396.877 183.815 398.82C184.739 400.734 185.64 402.604 186.52 404.426C188.278 408.072 189.946 411.53 191.513 414.781C193.203 417.972 194.784 420.96 196.247 423.722C196.978 425.104 197.679 426.429 198.35 427.695C199.022 428.96 199.643 430.178 200.316 431.289C205.523 440.275 208.498 445.41 208.498 445.41L208.506 445.424C208.618 445.617 208.548 445.861 208.35 445.969C208.155 446.076 207.907 446.011 207.793 445.824C207.793 445.824 204.708 440.735 199.31 431.831C198.616 430.727 197.975 429.516 197.281 428.258C196.588 426.999 195.864 425.682 195.108 424.307C193.597 421.559 191.963 418.588 190.217 415.412C188.593 412.176 186.865 408.732 185.043 405.101C184.138 403.283 183.209 401.418 182.258 399.509C181.381 397.567 180.483 395.58 179.566 393.551C178.649 391.522 177.713 389.451 176.758 387.339C176.281 386.283 175.799 385.218 175.314 384.143C174.847 383.06 174.409 381.954 173.949 380.846C172.142 376.403 170.21 371.83 168.339 367.088C166.561 362.311 164.735 357.403 162.868 352.387C161.17 347.314 159.437 342.132 157.673 336.862C156.074 331.542 154.448 326.134 152.802 320.66C151.331 315.139 149.78 309.565 148.33 303.92C147.649 301.088 146.965 298.243 146.279 295.391C145.601 292.536 144.872 289.684 144.29 286.794C143.674 283.912 143.057 281.023 142.44 278.132C142.139 276.685 141.807 275.243 141.53 273.791L140.709 269.431C140.169 266.522 139.629 263.614 139.089 260.708C138.561 257.801 138.134 254.88 137.652 251.974C137.198 249.064 136.684 246.168 136.283 243.265C135.88 240.362 135.479 237.468 135.08 234.585C134.88 233.144 134.682 231.706 134.484 230.27C134.315 228.831 134.146 227.396 133.978 225.964C133.642 223.1 133.307 220.25 132.974 217.417C132.657 214.583 132.411 211.76 132.129 208.96C131.871 206.158 131.55 203.382 131.359 200.618C130.939 195.094 130.448 189.667 130.189 184.34C130.043 181.678 129.873 179.046 129.751 176.444C129.647 173.84 129.544 171.269 129.442 168.732C129.393 167.464 129.344 166.205 129.295 164.954C129.265 163.703 129.236 162.46 129.206 161.228C129.147 158.762 129.09 156.334 129.033 153.946C129.012 151.558 128.992 149.21 128.972 146.906C128.946 144.601 128.934 142.339 128.96 140.125C128.954 131.264 129.221 123.143 129.502 115.951C129.833 108.759 130.186 102.493 130.592 97.3395C130.966 92.1841 131.378 88.1422 131.668 85.387C131.959 82.6323 132.157 81.164 132.157 81.164L132.157 81.1598C132.187 80.9409 132.394 80.7862 132.619 80.815C132.842 80.8422 132.999 81.0388 132.975 81.2545Z" fill="white"/>
<path d="M172.343 486.274C172.343 486.274 171.358 175.917 20.708 84.5996C18.0346 82.9791 14.504 84.2182 13.4959 87.1203C1.76786 120.884 -48.1793 304.195 172.343 486.274Z" fill="#96D9C9"/>
<path opacity="0.52" d="M33.3047 139.088C33.3047 139.088 34.6159 144.587 37.2142 154.151C38.5093 158.932 40.1238 164.728 42.0534 171.356C43.9595 177.99 46.2261 185.443 48.7545 193.557C51.311 201.662 54.1187 210.432 57.2327 219.662C58.7616 224.286 60.4226 229.007 62.0704 233.849C63.7829 238.67 65.4816 243.611 67.3037 248.605C69.1122 253.603 70.9488 258.685 72.8804 263.805C74.7731 268.938 76.7619 274.107 78.769 279.317C79.2697 280.62 79.7717 281.925 80.2746 283.233C80.79 284.536 81.3063 285.841 81.8235 287.148C82.8579 289.762 83.8951 292.384 84.9345 295.011C87.0357 300.256 89.2021 305.5 91.3729 310.743C93.6016 315.962 95.7787 321.201 98.0406 326.383C99.1779 328.971 100.313 331.554 101.444 334.129C102.012 335.416 102.579 336.701 103.145 337.984C103.725 339.26 104.304 340.535 104.882 341.807C107.213 346.887 109.46 351.953 111.816 356.9C114.155 361.854 116.402 366.776 118.754 371.553C119.914 373.949 121.065 376.324 122.205 378.677C122.77 379.856 123.332 381.029 123.891 382.196C124.466 383.356 125.038 384.51 125.607 385.658C127.896 390.244 130.08 394.756 132.305 399.101C133.42 401.273 134.52 403.415 135.603 405.524C136.673 407.64 137.727 409.724 138.764 411.774C140.895 415.843 142.955 419.775 144.932 423.55C146.887 427.337 148.87 430.91 150.723 434.325C152.576 437.74 154.279 441.008 155.962 444.037C159.338 450.09 162.281 455.367 164.704 459.712C167.172 464.036 169.111 467.433 170.433 469.749C171.744 472.073 172.442 473.312 172.442 473.312L172.447 473.319C172.572 473.542 172.488 473.822 172.259 473.943C172.037 474.062 171.759 473.988 171.628 473.779C171.628 473.779 170.872 472.571 169.453 470.306C168.047 468.033 165.984 464.7 163.358 460.458C162.022 458.349 160.653 455.953 159.127 453.364C157.607 450.771 155.963 447.967 154.206 444.971C150.757 438.945 146.88 432.134 142.85 424.603C140.835 420.837 138.736 416.914 136.564 412.855C135.507 410.81 134.433 408.731 133.342 406.62C132.264 404.502 131.169 402.352 130.059 400.172C125.704 391.416 121.109 382.181 116.64 372.499C112.133 362.836 107.615 352.789 103.171 342.522C100.902 337.409 98.7851 332.184 96.54 326.99C94.3272 321.781 92.1994 316.516 90.0202 311.271C87.9058 306.001 85.7912 300.731 83.6851 295.482C82.6539 292.849 81.6249 290.221 80.5985 287.601C80.0853 286.291 79.5732 284.983 79.0616 283.678C78.5628 282.367 78.0654 281.059 77.5685 279.754C75.5778 274.533 73.6054 269.352 71.7287 264.209C69.8136 259.079 67.9928 253.986 66.2004 248.978C64.3944 243.975 62.7113 239.024 61.0143 234.194C59.382 229.344 57.7365 224.613 56.2225 219.981C53.1381 210.734 50.3588 201.948 47.8287 193.829C45.3353 185.699 43.08 178.237 41.1595 171.601C39.2251 164.969 37.6062 159.169 36.3073 154.383C33.7028 144.815 32.3839 139.297 32.3839 139.297C32.3238 139.05 32.4815 138.802 32.7353 138.744C32.9895 138.686 33.2439 138.839 33.3041 139.086L33.3047 139.088Z" fill="white"/>
<path d="M433.584 173.163C433.552 171.769 432.927 170.45 431.859 169.519C430.791 168.588 429.375 168.129 427.946 168.249L283.621 180.404C280.937 180.63 278.794 182.813 278.794 185.432V467.499C278.794 470.286 281.285 472.336 284.152 472.336H435.285C436.682 472.336 438.02 471.893 438.997 470.922C439.974 469.95 440.506 468.689 440.474 467.331L433.584 173.163Z" fill="#AFAFAF"/>
<g opacity="0.68">
<path d="M307.38 194.318L296.364 195.043C295.157 195.12 294.538 196.204 294.538 197.464V454.757C294.538 456.044 294.807 457.573 296.027 457.573H307.524C308.752 457.573 309.76 456.283 309.759 454.991L309.594 196.589C309.594 195.324 308.594 194.24 307.38 194.318Z" fill="#F0F0F0"/>
<path opacity="0.7" d="M334.102 192.599L322.579 193.334C321.356 193.412 320.177 194.515 320.178 195.784L320.454 454.97C320.455 456.266 321.65 457.559 322.886 457.559H334.533C335.777 457.559 336.605 456.262 336.602 454.961L336.157 194.895C336.155 193.622 335.333 192.521 334.102 192.599Z" fill="#F0F0F0"/>
<path d="M361.176 190.888L349.502 191.633C348.263 191.712 347.549 192.792 347.552 194.069L348.119 454.97C348.122 456.274 348.848 457.574 350.101 457.574H361.902C363.162 457.574 364.488 456.27 364.484 454.96L363.743 193.167C363.74 191.885 362.422 190.809 361.176 190.888Z" fill="#F0F0F0"/>
<path d="M388.603 189.138L376.776 189.892C375.521 189.972 374.603 191.072 374.607 192.358L375.466 454.953C375.47 456.265 376.404 457.572 377.673 457.572H389.632C390.909 457.572 392.052 456.261 392.047 454.943L391.011 191.442C391.006 190.152 389.866 189.058 388.603 189.138Z" fill="#F0F0F0"/>
<path d="M416.394 187.365L404.409 188.129C403.137 188.21 402.012 189.33 402.018 190.624L403.175 454.935C403.18 456.257 404.328 457.571 405.614 457.571H417.732C419.027 457.571 419.983 456.252 419.977 454.926L418.637 189.695C418.63 188.396 417.673 187.283 416.394 187.365Z" fill="#F0F0F0"/>
</g>
<path d="M320.59 231.797C320.569 230.323 319.937 228.92 318.836 227.906C317.735 226.893 316.26 226.354 314.745 226.413L199.625 230.9C197.649 230.977 196.102 232.581 196.148 234.503L201.992 473.766L318.396 472.385C319.888 472.368 321.311 471.774 322.353 470.734C323.394 469.695 323.968 468.296 323.947 466.845L320.59 231.797Z" fill="#CBCBCB"/>
<g opacity="0.5">
<path d="M227.878 275.875L209.353 275.88L209.134 245.098H227.7L227.878 275.875Z" fill="white"/>
<path d="M254.471 275.818L236.015 275.822L235.854 245.098H254.351L254.471 275.818Z" fill="white"/>
<path d="M282.432 275.758L264.048 275.762L263.949 245.098H282.373L282.432 275.758Z" fill="white"/>
<path d="M310.329 275.77L291.627 275.738L291.199 245.098H310.329V275.77Z" fill="white"/>
<path d="M228.131 319.582L209.664 319.678L209.446 289.123L227.954 289.066L228.131 319.582Z" fill="white"/>
<path d="M254.64 319.447L236.241 319.543L236.082 289.044L254.521 288.988L254.64 319.447Z" fill="white"/>
<path d="M282.516 319.294L264.189 319.39L264.091 288.95L282.457 288.894L282.516 319.294Z" fill="white"/>
<path d="M310.329 319.158L291.684 319.254L291.838 288.872L310.329 288.816V319.158Z" fill="white"/>
<path d="M228.389 364.394L209.982 364.548L209.766 334.188L228.214 334.073L228.389 364.394Z" fill="white"/>
<path d="M254.813 364.174L236.474 364.327L236.315 334.023L254.695 333.909L254.813 364.174Z" fill="white"/>
<path d="M282.6 363.936L264.332 364.088L264.234 333.843L282.542 333.729L282.6 363.936Z" fill="white"/>
<path d="M310.327 363.715L291.74 363.867L291.895 333.678L310.327 333.565V363.715Z" fill="white"/>
<path d="M228.645 408.195L210.296 408.404L210.086 378.955L228.475 378.783L228.645 408.195Z" fill="white"/>
<path d="M254.987 407.899L236.704 408.108L236.551 378.712L254.872 378.541L254.987 407.899Z" fill="white"/>
<path d="M282.686 407.577L264.475 407.785L264.38 378.446L282.629 378.275L282.686 407.577Z" fill="white"/>
<path d="M310.329 407.272L291.799 407.479L291.955 378.195L310.329 378.025V407.272Z" fill="white"/>
<path d="M228.902 452.429L210.611 452.695L210.402 423.432L228.732 423.203L228.902 452.429Z" fill="white"/>
<path d="M255.16 452.048L236.936 452.313L236.783 423.103L255.046 422.875L255.16 452.048Z" fill="white"/>
<path d="M282.771 451.649L264.618 451.912L264.523 422.758L282.715 422.532L282.771 451.649Z" fill="white"/>
<path d="M310.328 451.259L291.855 451.521L292.012 422.422L310.328 422.196V451.259Z" fill="white"/>
</g>
<path d="M227.468 335.801H53.6864C51.4266 335.801 49.5947 334.02 49.5947 331.823V215.137C49.5947 212.94 51.4266 211.159 53.6864 211.159H227.468C229.728 211.159 231.56 212.94 231.56 215.137V331.823C231.56 334.02 229.728 335.801 227.468 335.801Z" fill="#A72F3B"/>
<path d="M234.539 335.801H60.7577C58.4979 335.801 56.666 334.02 56.666 331.823V215.137C56.666 212.94 58.4979 211.159 60.7577 211.159H234.539C236.799 211.159 238.631 212.94 238.631 215.137V331.823C238.631 334.02 236.799 335.801 234.539 335.801Z" fill="#A72F3B"/>
<path d="M108.605 319.385C107.206 319.385 106.024 319.368 105.087 319.35C103.488 319.319 102.177 318.174 101.972 316.629C101.767 315.073 102.746 313.636 104.3 313.21C112.615 310.944 121.682 307.093 128.358 303.975C96.5191 301.452 90.1626 285.554 88.9343 278.282C85.8347 259.942 102.207 239.191 125.429 232.023C149.127 224.714 173.131 227.347 186.593 238.736C193.746 244.789 201.504 256.378 197.846 277.236C191.003 316.258 128.409 319.385 108.605 319.385ZM105.207 313.733H105.214C105.214 313.733 105.21 313.733 105.207 313.733ZM151.208 298.473L141.121 303.941C140.589 304.227 131.711 309.015 120.913 313.405C145.494 311.964 187.08 305.213 192.151 276.292C194.724 261.612 191.579 250.401 182.801 242.975C169.183 231.451 145.055 231.864 127.177 237.377C106.93 243.628 92.0283 261.941 94.6353 277.371C97.0023 291.378 113.409 299.214 139.661 298.678L151.208 298.473Z" fill="white"/>
<path d="M229.689 189.257H55.9071C53.6473 189.257 51.8154 187.476 51.8154 185.279V68.5937C51.8154 66.3967 53.6473 64.6157 55.9071 64.6157H229.689C231.948 64.6157 233.78 66.3967 233.78 68.5937V185.279C233.78 187.476 231.948 189.257 229.689 189.257Z" fill="#B95962"/>
<path d="M236.736 189.875H62.954C60.6942 189.875 58.8623 188.094 58.8623 185.897V69.2109C58.8623 67.0139 60.6942 65.2329 62.954 65.2329H236.736C238.995 65.2329 240.827 67.0139 240.827 69.2109V185.897C240.827 188.094 238.995 189.875 236.736 189.875Z" fill="#B95962"/>
<path d="M189.782 171.604H104.015C96.9877 171.604 91.2705 166.045 91.2705 159.213V94.8177C91.2705 87.9852 96.9877 82.4269 104.015 82.4269H189.782C196.81 82.4269 202.527 87.9852 202.527 94.8177V159.213C202.527 166.045 196.81 171.604 189.782 171.604ZM104.015 86.7247C99.4256 86.7247 95.6912 90.3554 95.6912 94.8177V159.213C95.6912 163.675 99.4256 167.306 104.015 167.306H189.782C194.372 167.306 198.106 163.675 198.106 159.213V94.8177C198.106 90.3554 194.372 86.7247 189.782 86.7247H104.015Z" fill="#F0F0F0"/>
<path d="M146.699 127.252L94.999 89.5446L97.6522 86.1066L146.772 121.932L197.135 87.2001L199.693 90.7055L146.699 127.252Z" fill="#F0F0F0"/>
<path d="M196.488 167.61L164.325 112.195L168.175 110.083L200.338 165.498L196.488 167.61Z" fill="#F0F0F0"/>
<path d="M97.5415 167.106L93.6709 165.03L125.281 109.317L129.152 111.393L97.5415 167.106Z" fill="#F0F0F0"/>
<path d="M227.468 485.797H53.6864C51.4266 485.797 49.5947 484.016 49.5947 481.819V365.134C49.5947 362.937 51.4266 361.156 53.6864 361.156H227.468C229.728 361.156 231.56 362.937 231.56 365.134V481.819C231.56 484.016 229.728 485.797 227.468 485.797Z" fill="#B95962"/>
<path d="M234.539 485.797H60.7577C58.4979 485.797 56.666 484.016 56.666 481.819V365.134C56.666 362.937 58.4979 361.156 60.7577 361.156H234.539C236.799 361.156 238.631 362.937 238.631 365.134V481.819C238.631 484.016 236.799 485.797 234.539 485.797Z" fill="#B95962"/>
<path d="M176.125 467.923C169.028 467.923 160.686 464.688 151.254 458.269H151.254C145.017 454.023 117.802 427.564 113.435 421.501C105.568 410.573 102.351 401.148 103.876 393.487C104.861 388.535 107.885 384.33 112.62 381.327L116.76 378.7C119.829 376.756 123.979 377.582 126.013 380.544L137.446 397.219C139.796 400.642 138.934 405.198 135.484 407.589L135.404 407.641L133.433 408.885C131.646 410.014 130.514 411.846 130.329 413.912C130.145 415.976 130.933 417.97 132.493 419.381L132.55 419.435L153.434 439.741C154.887 441.257 156.94 442.023 159.061 441.846C161.185 441.666 163.071 440.566 164.234 438.827L165.565 436.837C168.022 433.479 172.709 432.64 176.233 434.928L193.383 446.042C196.431 448.02 197.282 452.055 195.281 455.038L192.579 459.064C189.49 463.667 185.165 466.607 180.071 467.565C178.802 467.803 177.486 467.923 176.125 467.923ZM153.789 454.748C164.011 461.705 172.574 464.598 179.231 463.345C183.177 462.603 186.423 460.372 188.876 456.715L191.578 452.689C192.261 451.671 191.971 450.293 190.93 449.618L173.781 438.503C172.265 437.521 170.26 437.871 169.192 439.295L167.941 441.169C166.03 444.026 162.933 445.833 159.443 446.127C155.968 446.42 152.611 445.17 150.227 442.698L129.451 422.5C126.908 420.182 125.623 416.919 125.925 413.539C126.228 410.146 128.088 407.135 131.026 405.279L132.952 404.064C134.417 403.024 134.777 401.073 133.768 399.603L122.335 382.929C121.641 381.919 120.223 381.637 119.176 382.3L115.036 384.927C111.274 387.312 108.979 390.467 108.216 394.304C106.928 400.778 109.902 409.099 117.057 419.036C121.156 424.728 147.934 450.762 153.79 454.748L153.789 454.748Z" fill="#F0F0F0"/>
<path d="M361.677 356.252C361.609 356.256 361.541 356.257 361.472 356.257L272.221 356.169C270.015 356.167 268.228 354.395 268.23 352.211C268.233 350.027 270.03 348.222 272.23 348.261L361.482 348.349C363.688 348.351 365.474 350.123 365.472 352.307C365.47 354.422 363.788 356.149 361.677 356.252Z" fill="#641C23"/>
<path d="M237.656 269.58C237.688 269.64 237.718 269.701 237.747 269.763L275.3 350.047C276.229 352.032 275.362 354.385 273.364 355.303C271.365 356.223 268.957 355.368 268.065 353.373L230.511 273.089C229.583 271.104 230.45 268.751 232.448 267.833C234.384 266.943 236.671 267.726 237.656 269.58Z" fill="#641C23"/>
<path d="M370.26 485.275C370.26 485.275 371.041 489.492 371.35 494.499C371.482 496.632 369.855 498.485 367.667 498.692C360.049 499.41 342.707 500.736 331.634 499.183C330.083 498.965 329.467 497.113 330.613 496.074C335.179 491.939 346.205 483.894 364.355 482.135L370.26 485.275Z" fill="#A72F3B"/>
<path d="M374.048 475.767L370.196 484.946C369.668 486.204 368.355 486.986 366.965 486.844C366.022 486.748 364.905 486.572 363.819 486.252C361.645 485.61 360.419 483.37 361.07 481.254L363.977 471.8L374.048 475.767Z" fill="#FFA89B"/>
<path d="M439.902 492.589C439.902 492.589 432.189 498.863 429.183 506.911C428.357 509.125 430.104 511.456 432.526 511.456H448.399C450.722 511.456 452.503 509.425 452.099 507.2C451.088 501.643 448.172 492.612 439.902 492.589Z" fill="#A72F3B"/>
<path d="M449.457 484.42C449.457 484.42 447.899 491.124 446.702 495.555C446.484 496.359 445.602 496.8 444.796 496.52C442.394 495.686 440.439 495.316 439.018 495.502C438.361 495.587 437.788 495.056 437.779 494.412L437.63 483.276L449.457 484.42Z" fill="#FFA89B"/>
<path d="M408.436 333.556L361.52 472.708C361.52 472.708 370.518 478.438 374.806 478.199L430.531 366.368C430.531 366.368 440.283 435.275 435.558 484.744L451.519 485.928C451.519 485.928 477.473 359.508 457.815 316.208L408.436 333.556Z" fill="#434343"/>
<path d="M430.229 365.163C430.247 365.163 430.267 365.162 430.286 365.16C430.535 365.129 430.712 364.908 430.68 364.666L428.859 350.617C428.828 350.375 428.603 350.207 428.352 350.234C428.103 350.264 427.926 350.485 427.958 350.727L429.778 364.777C429.808 365 430.003 365.163 430.229 365.163Z" fill="#242424"/>
<path d="M399.639 210.861C399.639 210.861 437.65 214.143 432.273 240.474C432.273 240.474 453.285 278.917 463.108 324.202C463.428 325.675 462.413 327.113 460.886 327.367L397.584 337.904C395.838 338.195 394.154 337.136 393.71 335.469L378.586 278.639L372.692 305.061L353.965 300.317L369.73 222.676C369.73 222.676 371.929 211.348 399.639 210.861Z" fill="#FF725E"/>
<path d="M378.264 276.348C378.297 276.348 378.331 276.345 378.365 276.337C378.619 276.283 378.78 276.039 378.725 275.792L373.449 252.237C373.393 251.99 373.145 251.834 372.888 251.886C372.634 251.941 372.472 252.184 372.527 252.432L377.804 275.987C377.852 276.201 378.047 276.348 378.264 276.348Z" fill="#A72F3B"/>
<path d="M382.085 346.447C384.079 345.381 386.413 345.086 388.622 345.62L393.026 346.686C393.962 346.913 394.889 346.286 394.997 345.354L399.555 305.915C405.254 308.546 413.475 308.231 416.187 308.039L405.697 354.534H368.988L382.085 346.447Z" fill="#FFA89B"/>
<path d="M284.552 260.903L285.661 257.318C286.3 255.255 287.869 253.586 289.924 252.782L309.992 244.937C309.992 244.937 310.294 242.434 305.752 240.734C301.209 239.034 302.271 234.087 302.271 234.087C302.271 234.087 308.477 236.84 317.563 241.205C322.759 243.702 325.675 248.11 327.221 251.428L372.692 305.321L367.353 308.887C360.333 313.577 350.678 311.273 346.688 303.957L322.055 258.033C309.688 261.645 297.173 262.336 284.552 260.903Z" fill="#FFA89B"/>
<path d="M387.325 185.975L399.016 217.787C399.016 217.787 388.664 225.655 381.109 222.995L375.218 204.76C375.218 204.76 379.717 182.473 387.325 185.975Z" fill="#FFA89B"/>
<path d="M352.432 174.538C352.432 175.028 363.694 205.533 363.694 205.533L381.472 198.911L375.217 168.457C375.217 168.457 352.432 166.331 352.432 174.538Z" fill="#FFA89B"/>
<path d="M372.099 175.88L376.683 191.661C376.742 191.863 376.772 192.067 376.772 192.277C376.774 193.565 376.446 197.993 371.806 197.391C367.596 196.844 363.745 196.407 361.296 197.528C360.196 198.031 359.671 199.261 360.081 200.373C361.105 203.145 363.531 209.348 366.485 214.425C367.085 215.455 368.399 215.856 369.508 215.366C372.847 213.889 379.799 210.582 384.752 206.648C385.423 206.115 385.745 205.277 385.585 204.449C384.806 200.412 382.485 188.134 382.383 184.615C382.287 181.312 386.098 178.791 387.777 177.844C388.327 177.533 388.718 177.021 388.867 176.42C389.394 174.294 389.841 169.483 383.529 168.423C382.208 168.201 381.347 166.972 381.615 165.695C382.149 163.152 381.978 159.411 377.012 158.033C371.965 156.632 368.789 159.586 367.174 161.851C366.52 162.767 365.298 163.064 364.252 162.609C363.656 162.351 362.936 162.339 362.163 162.973C361.12 163.827 359.534 163.567 358.768 162.471C357.296 160.365 354.622 158.263 350.096 159.687C342.063 162.213 342.447 171.217 345.392 176.111C348.336 181.006 356.884 177.785 360.931 174.542C364.008 172.076 368.693 173.551 370.762 174.4C371.417 174.669 371.905 175.215 372.099 175.88Z" fill="#641C23"/>
<path d="M383.992 190.381C383.992 190.381 379.239 181.638 382.382 178.893C385.526 176.147 390.852 176.597 390.708 183.434C390.53 191.937 383.992 190.381 383.992 190.381Z" fill="#FFA89B"/>
<path d="M412.498 308.365C415.092 308.365 416.944 308.173 417.144 308.152L417.481 308.115L431.322 245.377C431.377 245.129 431.215 244.885 430.961 244.832C430.703 244.778 430.455 244.937 430.401 245.184L416.704 307.272C414.644 307.448 403.644 308.158 397.837 304.158L409.827 249.651L407.325 245.066C407.203 244.842 406.918 244.757 406.687 244.875C406.457 244.994 406.37 245.271 406.492 245.495L408.834 249.786L396.789 304.544L397.03 304.72C401.225 307.785 407.984 308.365 412.498 308.365Z" fill="#A72F3B"/>
<path d="M336.764 363.607C337.126 364.801 371.691 468.039 380.454 494.211C381.464 497.227 378.644 500.189 374.767 500.189C372.064 500.189 369.708 498.706 369.054 496.593L330.685 372.703L336.764 363.607Z" fill="#CA8289"/>
<path d="M317.837 363.607C317.475 364.801 282.91 468.039 274.147 494.211C273.137 497.227 275.958 500.189 279.834 500.189C282.537 500.189 284.893 498.706 285.547 496.593L323.916 372.703L317.837 363.607Z" fill="#CA8289"/>
<path d="M316.397 359.49H337.924V376.297C337.924 378.713 335.934 380.671 333.479 380.671H330.526V418.423C330.526 420.252 329.019 421.735 327.16 421.735C325.301 421.735 323.795 420.252 323.795 418.423V380.671H322.296C319.038 380.671 316.396 378.072 316.396 374.866L316.397 359.49Z" fill="#CA8289"/>
<path d="M403.692 355.451H253.065C250.96 355.451 249.122 356.569 248.596 358.17L246.493 364.568C245.736 366.871 247.96 369.112 250.989 369.098L405.547 368.401C408.543 368.387 410.729 366.171 409.997 363.891L408.168 358.19C407.651 356.58 405.807 355.451 403.692 355.451Z" fill="#CA8289"/>
</svg>
