<svg width="125" viewBox="0 0 125 0" fill="none" xmlns="http://www.w3.org/2000/svg">
<path d="M130.333 -4.66255e-07C130.333 -2.94552 127.946 -5.33333 125 -5.33333C122.054 -5.33333 119.667 -2.94552 119.667 4.66255e-07C119.667 2.94552 122.054 5.33333 125 5.33333C127.946 5.33333 130.333 2.94552 130.333 -4.66255e-07ZM5.33333 1.04616e-05C5.33333 -2.94551 2.94552 -5.33332 -4.66255e-07 -5.33332C-2.94552 -5.33332 -5.33333 -2.94551 -5.33333 1.13941e-05C-5.33333 2.94553 -2.94552 5.33334 4.66255e-07 5.33334C2.94552 5.33334 5.33333 2.94553 5.33333 1.04616e-05ZM125 0L125 -1L123.047 -1L123.047 1.70748e-07L123.047 1L125 1L125 0ZM119.141 5.12243e-07L119.141 -0.999999L115.234 -0.999999L115.234 8.53738e-07L115.234 1L119.141 1L119.141 5.12243e-07ZM111.328 1.19523e-06L111.328 -0.999999L107.422 -0.999998L107.422 1.53673e-06L107.422 1L111.328 1L111.328 1.19523e-06ZM103.516 1.87822e-06L103.516 -0.999998L99.6094 -0.999998L99.6094 2.21972e-06L99.6094 1L103.516 1L103.516 1.87822e-06ZM95.7031 2.56122e-06L95.7031 -0.999997L91.7969 -0.999997L91.7969 2.90271e-06L91.7969 1L95.7031 1L95.7031 2.56122e-06ZM87.8906 3.24421e-06L87.8906 -0.999997L83.9844 -0.999996L83.9844 3.5857e-06L83.9844 1L87.8906 1L87.8906 3.24421e-06ZM80.0781 3.9272e-06L80.0781 -0.999996L76.1719 -0.999996L76.1719 4.26869e-06L76.1719 1L80.0781 1L80.0781 3.9272e-06ZM72.2656 4.61019e-06L72.2656 -0.999995L68.3594 -0.999995L68.3594 4.95168e-06L68.3594 1L72.2656 1L72.2656 4.61019e-06ZM64.4531 5.29318e-06L64.4531 -0.999995L60.5469 -0.999994L60.5469 5.63467e-06L60.5469 1.00001L64.4531 1.00001L64.4531 5.29318e-06ZM56.6406 5.97617e-06L56.6406 -0.999994L52.7344 -0.999994L52.7344 6.31766e-06L52.7344 1.00001L56.6406 1.00001L56.6406 5.97617e-06ZM48.8281 6.65916e-06L48.8281 -0.999993L44.9219 -0.999993L44.9219 7.00065e-06L44.9219 1.00001L48.8281 1.00001L48.8281 6.65916e-06ZM41.0156 7.34215e-06L41.0156 -0.999993L37.1094 -0.999992L37.1094 7.68365e-06L37.1094 1.00001L41.0156 1.00001L41.0156 7.34215e-06ZM33.2031 8.02514e-06L33.2031 -0.999992L29.2969 -0.999992L29.2969 8.36664e-06L29.2969 1.00001L33.2031 1.00001L33.2031 8.02514e-06ZM25.3906 8.70813e-06L25.3906 -0.999991L21.4844 -0.999991L21.4844 9.04963e-06L21.4844 1.00001L25.3906 1.00001L25.3906 8.70813e-06ZM17.5781 9.39112e-06L17.5781 -0.999991L13.6719 -0.99999L13.6719 9.73262e-06L13.6719 1.00001L17.5781 1.00001L17.5781 9.39112e-06ZM9.76562 1.00741e-05L9.76562 -0.99999L5.85937 -0.99999L5.85938 1.04156e-05L5.85938 1.00001L9.76563 1.00001L9.76562 1.00741e-05ZM1.95312 1.07571e-05L1.95312 -0.999989L-8.74228e-08 -0.999989L0 1.09279e-05L8.74228e-08 1.00001L1.95313 1.00001L1.95312 1.07571e-05Z" fill="#EDD5D8"/>
</svg>
