<svg width="520" height="339" viewBox="0 0 520 339" fill="none" xmlns="http://www.w3.org/2000/svg">
<path d="M520 315.102H0V315.342H520V315.102Z" fill="#D6D6D6"/>
<path d="M129.819 329.627H95.3721V329.867H129.819V329.627Z" fill="#D6D6D6"/>
<path d="M84.471 329.627H64.5103V329.867H84.471V329.627Z" fill="#D6D6D6"/>
<path d="M218.976 333.16H199.017V333.4H218.976V333.16Z" fill="#D6D6D6"/>
<path d="M323.041 338.519H278.12V338.759H323.041V338.519Z" fill="#D6D6D6"/>
<path d="M268.861 338.519H262.274V338.759H268.861V338.519Z" fill="#D6D6D6"/>
<path d="M471.477 333.16H374.054V333.4H471.477V333.16Z" fill="#D6D6D6"/>
<path d="M246.495 272.288H45.6717C42.3988 272.288 39.7354 269.829 39.7354 266.808V6.23359C39.7354 3.21247 42.3988 0.753906 45.6717 0.753906H246.495C249.766 0.753906 252.43 3.21247 252.43 6.23359V266.808C252.43 269.829 249.766 272.288 246.495 272.288ZM45.6717 0.994866C42.5413 0.994866 39.9954 3.34495 39.9954 6.23455V266.809C39.9954 269.699 42.5413 272.049 45.6717 272.049H246.495C249.624 272.049 252.17 269.699 252.17 266.809V6.23359C252.17 3.34495 249.624 0.993906 246.495 0.993906L45.6717 0.994866Z" fill="#D6D6D6"/>
<path d="M471.442 272.288H270.62C267.348 272.288 264.685 269.829 264.685 266.808V6.23359C264.685 3.21247 267.348 0.753906 270.62 0.753906H471.442C474.716 0.753906 477.379 3.21247 477.379 6.23359V266.808C477.38 269.829 474.716 272.288 471.442 272.288ZM270.62 0.994866C267.491 0.994866 264.945 3.34495 264.945 6.23455V266.809C264.945 269.699 267.491 272.049 270.62 272.049H471.442C474.573 272.049 477.119 269.699 477.119 266.809V6.23359C477.119 3.34495 474.573 0.993906 471.442 0.993906L270.62 0.994866Z" fill="#D6D6D6"/>
<path d="M278.095 233.098H255.226V316.843H278.095V233.098Z" fill="#D6D6D6"/>
<path d="M273.752 316.844H278.095V305.439H269.198L273.752 316.844Z" fill="#D6D6D6"/>
<path d="M177.886 233.098H155.017V316.843H177.886V233.098Z" fill="#D6D6D6"/>
<path d="M278.096 233.098H174.095V309.845H278.096V233.098Z" fill="#D6D6D6"/>
<path d="M274.324 236.871V257.176H177.866V236.871H274.324ZM274.725 236.5H177.463V257.547H274.725V236.5Z" fill="#D6D6D6"/>
<path d="M178.438 316.844H174.095V305.439H182.992L178.438 316.844Z" fill="#D6D6D6"/>
<path d="M223.794 247.023C223.794 248.195 224.824 249.146 226.095 249.146C227.365 249.146 228.395 248.196 228.395 247.023C228.395 245.851 227.366 244.899 226.095 244.899C224.825 244.9 223.794 245.851 223.794 247.023Z" fill="#D6D6D6"/>
<path d="M274.324 261.319V281.624H177.866V261.319H274.324ZM274.725 260.948H177.463V281.996H274.725V260.948Z" fill="#D6D6D6"/>
<path d="M223.794 271.471C223.794 272.643 224.824 273.595 226.095 273.595C227.365 273.595 228.395 272.644 228.395 271.471C228.395 270.298 227.366 269.348 226.095 269.348C224.825 269.348 223.794 270.299 223.794 271.471Z" fill="#D6D6D6"/>
<path d="M274.324 285.767V306.072H177.866V285.767H274.324ZM274.725 285.397H177.463V306.444H274.725V285.397Z" fill="#D6D6D6"/>
<path d="M223.794 295.92C223.794 297.092 224.824 298.044 226.095 298.044C227.365 298.044 228.395 297.093 228.395 295.92C228.395 294.747 227.366 293.797 226.095 293.797C224.825 293.797 223.794 294.747 223.794 295.92Z" fill="#D6D6D6"/>
<path d="M163.914 184.463H141.046V316.844H163.914V184.463Z" fill="#D6D6D6"/>
<path d="M159.572 316.844H163.915V305.439H155.018L159.572 316.844Z" fill="#D6D6D6"/>
<path d="M78.4442 184.463H55.5757V316.844H78.4442V184.463Z" fill="#D6D6D6"/>
<path d="M163.914 184.463H74.6543V309.845H163.914V184.463Z" fill="#D6D6D6"/>
<path d="M160.072 188.013V216.401H78.4971V188.013H160.072ZM160.545 187.577H78.0239V216.838H160.545V187.577Z" fill="#D6D6D6"/>
<path d="M160.072 219.851V295.149H121.216V219.851H160.072ZM160.545 219.414H120.742V295.588H160.545V219.414Z" fill="#D6D6D6"/>
<path d="M117.353 219.851V295.149H78.4971V219.851H117.353ZM117.827 219.414H78.0239V295.588H117.827V219.414Z" fill="#D6D6D6"/>
<path d="M78.9973 316.844H74.6543V305.439H83.5515L78.9973 316.844Z" fill="#D6D6D6"/>
<path d="M116.984 202.207C116.984 203.38 118.014 204.331 119.285 204.331C120.555 204.331 121.585 203.38 121.585 202.207C121.585 201.035 120.556 200.084 119.285 200.084C118.014 200.085 116.984 201.035 116.984 202.207Z" fill="#D6D6D6"/>
<path d="M125.219 255.705C125.219 256.877 126.249 257.828 127.52 257.828C128.791 257.828 129.82 256.878 129.82 255.705C129.82 254.533 128.791 253.581 127.52 253.581C126.249 253.581 125.219 254.532 125.219 255.705Z" fill="#D6D6D6"/>
<path d="M108.749 255.705C108.749 256.877 109.779 257.828 111.05 257.828C112.319 257.828 113.35 256.878 113.35 255.705C113.35 254.533 112.32 253.581 111.05 253.581C109.78 253.581 108.749 254.532 108.749 255.705Z" fill="#D6D6D6"/>
<path d="M106.158 147.554H96.5108C96.5108 147.554 98.1852 155.786 98.1852 160.63C98.1852 165.475 90.8469 184.463 101.334 184.463C111.821 184.463 104.483 165.474 104.483 160.63C104.482 155.785 106.158 147.554 106.158 147.554Z" fill="#86B1F2"/>
<path d="M69.4751 167.022V172.808C69.4751 179.218 75.1566 184.462 82.1017 184.462H88.3698C95.3139 184.462 100.995 179.218 100.995 172.808V167.022H69.4751Z" fill="#3F7FDD"/>
<path d="M203.494 220.894C203.494 227.607 211.638 233.099 221.592 233.099H230.576C240.531 233.099 248.675 227.607 248.675 220.894H203.494Z" fill="#D6D6D6"/>
<path d="M441.59 211.069C436.14 215.175 428.619 222.693 421.727 233.272C417.137 240.316 414.37 247.698 413.155 257.449C413.181 246.41 413.219 234.549 413.26 223.356C414.645 220.475 417.806 213.837 420.075 208.591C427.643 191.089 430.461 186.786 437.268 171.69C446.346 151.555 455.649 127.663 452.985 129.573C447.558 133.462 426.757 169.416 424.508 174.563C416.775 192.265 414.621 205.169 413.282 217.621C413.324 207.107 413.369 197.453 413.412 190.005C413.552 165.709 414 157.868 414.218 155.449C415.06 154.221 416.054 152.788 416.632 152.016C421.518 145.495 423.403 139.94 428.007 130.213C434.531 116.43 440.149 91.9597 438.506 93.1943C431.667 98.3332 426.273 109.382 419.184 123.46C412.097 137.539 414.123 145.634 412.717 157.658C412.421 160.018 412.196 168.922 412.032 181.263C410.194 168.116 406.745 159.452 400.453 151.579C392.713 141.895 385.226 135.354 379.733 131.937C374.24 128.521 389.219 152.308 396.382 162.691C402.762 171.936 408.638 180.095 411.951 188.131C411.775 204.856 411.694 226.035 411.694 245.75C410.051 236.778 407.368 227.117 403.788 219.636C399.487 210.647 392.869 196.861 387.602 192.185C386.336 191.061 393.109 217.874 397.456 225.004C401.803 232.134 404.994 238.853 407.73 242.895C408.368 243.837 410.486 247.474 411.695 249.565C411.707 273.632 411.84 294.869 412.067 302.098H413.193C413.116 300.233 413.103 287.99 413.127 271.786C415.84 262.988 422.043 252.948 427.162 243.789C432.75 233.789 447.041 206.962 441.59 211.069Z" fill="#96D9C9"/>
<path d="M428.937 316.844H396.341L393.88 287.349H431.398L428.937 316.844Z" fill="#86B1F2"/>
<path d="M433.827 290.785H391.45L390.237 280.834H435.041L433.827 290.785Z" fill="#3F7FDD"/>
<path d="M129.231 20.4771H70.9365V79.5641H129.231V20.4771Z" fill="#D6D6D6"/>
<path d="M135.544 20.4771H75.3306V79.5641H135.544V20.4771Z" fill="#D6D6D6"/>
<path d="M130.499 74.9074V25.1333L80.3741 25.1333V74.9074H130.499Z" fill="white"/>
<path d="M118.35 62.844V37.1986L92.5243 37.1986V62.844H118.35Z" fill="#D6D6D6"/>
<path d="M426.453 27.3651H372.3V82.255H426.453V27.3651Z" fill="#D6D6D6"/>
<path d="M432.319 27.3651H376.382V82.255H432.319V27.3651Z" fill="#D6D6D6"/>
<path d="M427.632 77.9298V31.6914L381.068 31.6914V77.9298H427.632Z" fill="white"/>
<path d="M404.35 68.2198C412.373 68.2198 418.877 62.2163 418.877 54.8105C418.877 47.4048 412.373 41.4012 404.35 41.4012C396.327 41.4012 389.823 47.4048 389.823 54.8105C389.823 62.2163 396.327 68.2198 404.35 68.2198Z" fill="#D6D6D6"/>
<path d="M189.789 55.7091H146.545V99.5408H189.789V55.7091Z" fill="#D6D6D6"/>
<path d="M194.474 55.7091H149.806V99.5408H194.474V55.7091Z" fill="#D6D6D6"/>
<path d="M190.731 96.0872V59.1637L153.548 59.1637V96.0872H190.731Z" fill="white"/>
<path d="M172.14 68.2909L161.971 84.5504H182.309L172.14 68.2909Z" fill="#D6D6D6"/>
</svg>
