<svg width="94" height="252" viewBox="0 0 94 252" fill="none" xmlns="http://www.w3.org/2000/svg">
<path d="M22.6233 52.9453C21.6384 54.9393 20.6015 57.1329 19.6915 59.2727C18.7742 61.4327 17.859 63.5946 17.0613 65.7873C15.5117 70.1726 14.0589 74.5982 13.3433 79.0362L13.1062 80.4494C13.0875 80.6193 13.101 80.8612 13.1821 81.1646C13.334 81.7742 13.7458 82.5902 14.3251 83.3908C15.4961 85.0103 17.156 86.65 18.9458 88.1726C20.7315 89.7191 22.6711 91.1985 24.6866 92.603C26.6824 94.0199 28.7873 95.4071 30.8465 96.707L28.908 100.076C23.9597 98.0788 19.3514 95.6913 14.8877 92.6951C12.6933 91.1514 10.526 89.4897 8.60615 87.2433C7.65975 86.1105 6.72895 84.8308 6.11951 83.1412C5.82415 82.2983 5.61823 81.345 5.61719 80.314C5.62447 80.0769 5.63799 79.7438 5.65567 79.5844L5.70663 79.1073L5.81062 78.153C6.37638 73.0641 7.59734 68.1729 9.20622 63.4286C10.0174 61.0593 10.8827 58.714 11.8707 56.4129C12.8795 54.0964 13.8748 51.873 15.1363 49.5412L22.6233 52.9453Z" fill="#FFA89B"/>
<path d="M29.3905 96.1348L36.7391 92.6932L34.8411 100.149C34.8411 100.149 29.795 101.449 27.4478 99.1895L29.3905 96.1348Z" fill="#FFA89B"/>
<path d="M43.4692 93.9172L41.514 100.08L34.8403 100.15L36.7394 92.6932L43.4692 93.9172Z" fill="#FFA89B"/>
<path d="M53.8491 17.001C53.8491 17.001 54.4866 19.1648 55.4975 20.7958C54.6291 21.5446 53.8491 21.2845 53.8491 21.2845V17.001Z" fill="#FF725E"/>
<path d="M53.632 17.0576C54.0622 17.0576 54.4109 16.5651 54.4109 15.9575C54.4109 15.3499 54.0622 14.8573 53.632 14.8573C53.2018 14.8573 52.853 15.3499 52.853 15.9575C52.853 16.5651 53.2018 17.0576 53.632 17.0576Z" fill="#434343"/>
<path d="M53.4414 14.8909L55.0222 14.4705C55.0222 14.4705 54.211 15.6109 53.4414 14.8909Z" fill="#434343"/>
<path d="M33.5329 24.0426C34.4824 28.5114 35.4298 36.7002 32.0415 39.682C32.0415 39.682 33.3654 44.2151 42.3614 44.2151C52.2539 44.2151 47.0893 39.682 47.0893 39.682C41.6906 38.4916 41.83 34.7946 42.7702 31.3223L33.5329 24.0426Z" fill="#FFA89B"/>
<path d="M30.908 13.8724C31.404 21.3335 31.4415 24.5006 35.5245 28.33C41.6647 34.09 51.4833 31.8955 53.4125 24.4487C55.1483 17.7451 54.0448 6.67051 46.1336 3.70123C38.3377 0.776107 30.4108 6.41131 30.908 13.8724Z" fill="#FFA89B"/>
<path d="M31.7046 5.43019C27.6518 6.79435 22.2448 5.77963 24.3664 17.3275C26.6128 29.555 23.1548 33.5774 23.1548 33.5774C23.1548 33.5774 38.5385 36.6023 54.2425 33.3969C54.2425 33.3969 49.4481 25.6574 50.7938 20.0097C52.5098 12.8068 51.1495 10.1447 51.1495 10.1447C51.1495 10.1447 37.4038 3.51211 31.7046 5.43019Z" fill="#434343"/>
<path d="M48.8656 17.7604C48.849 19.2388 49.4106 20.7277 50.1386 21.7616C51.2337 23.3178 52.5337 22.6842 52.8592 21.0685C53.1525 19.6151 52.9351 17.0538 51.5321 16.0602C50.151 15.0829 48.8854 16.0708 48.8656 17.7604Z" fill="#FFA89B"/>
<path d="M28.1842 6.73671C27.0142 3.71751 32.572 -0.926009 44.3219 1.00551C56.0718 2.93703 56.5877 11.9572 56.5877 11.9572L54.2102 9.3527L54.3173 12.0954L42.2419 14.2372L28.1842 6.73671Z" fill="#434343"/>
<path d="M29.1804 40.1899C29.0182 39.2673 29.69 38.3985 30.6884 38.2468C34.3471 37.6891 42.663 36.5601 46.849 37.0948C49.9586 37.4923 50.7812 39.1684 50.9122 40.5393C51.01 41.5559 50.099 42.4132 48.9945 42.3671L30.9099 41.6126C30.0415 41.5761 29.3187 40.9828 29.1804 40.1899Z" fill="#FF725E"/>
<path opacity="0.6" d="M29.1804 40.1899C29.0182 39.2673 29.69 38.3985 30.6884 38.2468C34.3471 37.6891 42.663 36.5601 46.849 37.0948C49.9586 37.4923 50.7812 39.1684 50.9122 40.5393C51.01 41.5559 50.099 42.4132 48.9945 42.3671L30.9099 41.6126C30.0415 41.5761 29.3187 40.9828 29.1804 40.1899Z" fill="black"/>
<path d="M39.6304 207.908L46.3332 212.203L57.5568 198.162L50.8541 193.867L39.6304 207.908Z" fill="#FFA89B"/>
<path d="M23.9834 207.623L31.0741 211.351L41.0072 196.501L33.9175 192.774L23.9834 207.623Z" fill="#FFA89B"/>
<path d="M57.5518 198.165L51.7684 205.403L45.0635 201.106L50.8469 193.868L57.5518 198.165Z" fill="#FFA89B"/>
<path d="M33.9136 192.777L41.0064 196.506L35.8824 204.159L28.7896 200.43L33.9136 192.777Z" fill="#FFA89B"/>
<path d="M45.2861 87.0685C45.2861 87.0685 71.4733 117.534 66.5604 146.667C62.5917 170.199 39.6108 202.062 39.6108 202.062L28.8052 197.105C28.8052 197.105 40.5458 175.929 48.2553 153.481C51.4887 144.068 50.1107 133.697 44.0662 125.548C30.801 107.663 9.5486 118.305 23.8444 87.0695L45.2861 87.0685Z" fill="#FF725E"/>
<path opacity="0.6" d="M45.2861 87.0685C45.2861 87.0685 71.4733 117.534 66.5604 146.667C62.5917 170.199 39.6108 202.062 39.6108 202.062L28.8052 197.105C28.8052 197.105 40.5458 175.929 48.2553 153.481C51.4887 144.068 50.1107 133.697 44.0662 125.548C30.801 107.663 9.5486 118.305 23.8444 87.0695L45.2861 87.0685Z" fill="black"/>
<path opacity="0.4" d="M58.131 106.645L54.3267 103.152C54.3267 103.429 61.7013 145.444 63.774 157.252C65.0241 153.632 65.9861 150.061 66.5633 146.667C68.9678 132.403 63.9123 117.813 58.131 106.645Z" fill="black"/>
<path d="M56.9819 87.0685C56.9819 87.0685 88.5136 125.353 89.4007 148.312C90.1443 167.548 55.0548 204.707 55.0548 204.707L44.868 198.623C44.868 198.623 65.3861 172.207 70.5518 150.613C68.582 129.238 26.3081 87.0676 26.3081 87.0676H56.9819V87.0685Z" fill="#FF725E"/>
<path opacity="0.6" d="M56.9819 87.0685C56.9819 87.0685 88.5136 125.353 89.4007 148.312C90.1443 167.548 55.0548 204.707 55.0548 204.707L44.868 198.623C44.868 198.623 65.3861 172.207 70.5518 150.613C68.582 129.238 26.3081 87.0676 26.3081 87.0676H56.9819V87.0685Z" fill="black"/>
<path d="M17.9702 41.3936C14.5933 42.129 11.3662 53.4445 11.3662 53.4445L24.5357 61.5594C24.5357 61.5594 28.9245 52.616 27.3926 48.6983C25.7962 44.6183 22.2342 40.4653 17.9702 41.3936Z" fill="#FF725E"/>
<path opacity="0.2" d="M20.5473 48.6743L19.627 58.5326L24.5295 61.5614C24.5295 61.5614 26.8269 56.8756 27.5112 52.7918L20.5473 48.6743Z" fill="black"/>
<path d="M60.8806 41.6115C60.8806 41.6115 64.7671 42.8749 56.9817 87.0685C43.8319 87.0685 30.2422 87.0685 23.8441 87.0685C24.4005 74.6192 24.4161 66.9421 17.9702 41.3936C17.9702 41.3936 24.9133 39.9997 32.0414 39.6819C37.6179 39.4342 42.1866 39.2691 47.0892 39.6829C53.5517 40.2272 60.8806 41.6115 60.8806 41.6115Z" fill="#FF725E"/>
<path d="M64.2461 48.6291C64.997 50.5443 65.7916 52.616 66.6184 54.6051C67.4119 56.624 68.2356 58.639 69.0852 60.6454L71.6353 66.6752L72.2801 68.1824L72.6036 68.936L72.7658 69.3123C72.7939 69.3795 72.7887 69.3738 72.7783 69.367C72.7336 69.3488 72.6951 69.1587 72.0503 68.768C71.7341 68.5866 71.2037 68.4119 70.692 68.4023C70.1772 68.385 69.7696 68.5011 69.5356 68.5952C69.0665 68.8016 69.0592 68.8909 69.0696 68.8765C69.0998 68.8621 69.1965 68.7766 69.3026 68.6586C69.7571 68.1546 70.3062 67.2858 70.7877 66.4218C71.2796 65.5414 71.7445 64.6006 72.2073 63.6464C73.1277 61.7331 73.9649 59.7363 74.8167 57.7367C75.6591 55.7312 76.4526 53.696 77.2388 51.655L79.6059 45.5283L83.613 46.4605C82.8205 50.8429 81.7951 55.135 80.5731 59.4426C79.9761 61.6006 79.2856 63.7405 78.4962 65.9005C78.1031 66.9824 77.6631 68.0615 77.1577 69.1616C76.6325 70.2704 76.1115 71.3638 75.1817 72.6339C74.9373 72.9555 74.6607 73.2954 74.2748 73.6698C73.8672 74.0384 73.396 74.4838 72.38 74.9053C71.8745 75.1059 71.1715 75.2835 70.3603 75.2538C69.5522 75.2326 68.7327 74.9677 68.1659 74.6432C67.0136 73.9635 66.6152 73.3165 66.2741 72.8307C66.116 72.5869 65.9808 72.3354 65.8872 72.1539L65.6896 71.7814L65.2944 71.0365L64.5082 69.5456C63.4807 67.5478 62.474 65.5395 61.5203 63.5091C60.576 61.4739 59.6556 59.4272 58.7632 57.3651C57.9094 55.2714 57.0649 53.2429 56.313 51.0157L64.2461 48.6291Z" fill="#FFA89B"/>
<path d="M60.8806 41.6116C64.8638 42.4871 69.3389 53.3505 69.3389 53.3505L57.5016 62.6615C57.5016 62.6615 49.8296 50.8161 51.3823 46.905C52.9984 42.8318 55.6775 40.4673 60.8806 41.6116Z" fill="#FF725E"/>
<path d="M81.4549 42.1416L85.6097 38.9342L88.4998 43.09L86.3709 46.5604C86.3709 46.5604 82.9806 49.4251 79.9791 47.9678C79.0098 45.9393 79.612 43.5643 81.4549 42.1416Z" fill="#FFA89B"/>
<path d="M93.151 38.9438L92.84 39.9892L86.2578 41.0097L85.6089 38.9342L93.151 38.9438Z" fill="#FFA89B"/>
<path d="M55.8982 205.211L44.0225 198.12L46.1493 194.707L59.4956 202.28L55.8982 205.211Z" fill="#FF725E"/>
<path d="M35.7025 210.849C34.7582 210.849 33.5154 210.296 32.7625 209.91C32.6949 209.876 32.6564 209.807 32.6647 209.735C32.672 209.665 32.725 209.606 32.7978 209.583C33.1181 209.49 35.9355 208.693 36.7332 209.311C36.859 209.409 36.9994 209.589 36.9547 209.89C36.8965 210.288 36.6989 210.57 36.3681 210.721C36.1768 210.81 35.9501 210.849 35.7025 210.849ZM33.3636 209.802C34.6553 210.408 35.6953 210.632 36.1955 210.403C36.4087 210.305 36.5314 210.121 36.573 209.842C36.5949 209.691 36.5377 209.625 36.4846 209.585C36.0655 209.259 34.5034 209.513 33.3636 209.802Z" fill="#434343"/>
<path d="M32.857 209.931C32.805 209.931 32.7551 209.912 32.7187 209.877C32.6708 209.831 32.6532 209.766 32.6719 209.705C32.6989 209.616 33.3479 207.531 34.416 207.056C34.7009 206.93 34.99 206.924 35.2729 207.032C35.7222 207.207 35.7669 207.51 35.7513 207.674C35.6785 208.537 33.7722 209.73 32.9028 209.925C32.8882 209.929 32.8726 209.931 32.857 209.931ZM34.8725 207.313C34.7768 207.313 34.6801 207.335 34.5824 207.379C33.9459 207.662 33.4113 208.787 33.1555 209.471C34.0707 209.116 35.3197 208.173 35.3644 207.647C35.3717 207.562 35.3509 207.451 35.1211 207.362C35.0389 207.33 34.9557 207.313 34.8725 207.313Z" fill="#434343"/>
<path d="M50.5589 214.997C49.3878 214.997 47.755 213.608 46.8617 212.755C46.8045 212.7 46.7909 212.618 46.8273 212.55C46.8648 212.483 46.9584 212.445 47.0249 212.453C47.4368 212.502 51.0539 212.953 51.5646 213.896C51.6623 214.078 51.654 214.272 51.5406 214.458C51.3493 214.769 51.0716 214.947 50.717 214.989C50.666 214.994 50.613 214.997 50.5589 214.997ZM47.546 212.883C48.8606 214.062 50.0087 214.715 50.6691 214.633C50.9 214.606 51.0747 214.492 51.2047 214.281C51.2546 214.2 51.2588 214.129 51.2182 214.055C50.9405 213.543 49.0093 213.1 47.546 212.883Z" fill="#434343"/>
<path d="M47.66 212.853C47.3927 212.853 47.1535 212.838 46.9653 212.805C46.8987 212.794 46.8426 212.751 46.8186 212.692C46.7958 212.633 46.8072 212.565 46.8509 212.517C46.9102 212.45 48.3173 210.885 49.6464 210.777C50.0624 210.747 50.415 210.849 50.7166 211.087C51.1253 211.411 51.0972 211.699 51.0015 211.883C50.6718 212.522 48.8747 212.853 47.66 212.853ZM47.3917 212.493C48.5534 212.553 50.4108 212.197 50.6531 211.729C50.6739 211.69 50.7353 211.571 50.4659 211.359C50.2413 211.181 49.9813 211.107 49.6807 211.132C48.8082 211.203 47.8337 212.058 47.3917 212.493Z" fill="#434343"/>
<path d="M33.1419 208.921L24.3206 206.619C23.9993 206.536 23.6758 206.673 23.5427 206.95L20.5652 213.13C20.2563 213.771 20.6848 214.566 21.4294 214.748C24.5193 215.501 26.0522 215.721 29.9314 216.734C32.3182 217.357 35.7346 218.495 39.0304 219.355C42.2533 220.196 43.4223 217.252 42.1337 216.621C36.3545 213.794 35.8989 211.856 34.3181 209.709C34.0332 209.322 33.612 209.044 33.1419 208.921Z" fill="#FF725E"/>
<path d="M47.1018 211.633L39.5722 206.807C39.2977 206.632 38.9441 206.665 38.7194 206.887L33.7253 211.837C33.2074 212.35 33.3333 213.231 33.9729 213.625C36.629 215.266 38.0018 215.934 41.3132 218.057C43.3505 219.362 47.4169 222.258 50.2301 224.061C52.982 225.824 55.1244 223.391 54.1281 222.408C49.6602 218 48.6743 215.237 47.9369 212.731C47.8028 212.279 47.5022 211.89 47.1018 211.633Z" fill="#FF725E"/>
<path d="M40.9982 202.699L27.4189 196.469L28.825 193.078L43.3185 199.635L40.9982 202.699Z" fill="#FF725E"/>
<path d="M23.3483 85.2733L22.1991 88.0112C22.0826 88.2234 22.3551 88.4404 22.7388 88.4404H57.1451C57.4436 88.4404 57.6911 88.305 57.7099 88.1322L58.0083 85.3943C58.0291 85.2042 57.7702 85.0439 57.4436 85.0439H23.887C23.6415 85.0439 23.4231 85.137 23.3483 85.2733Z" fill="#FF725E"/>
<path opacity="0.4" d="M23.3483 85.2733L22.1991 88.0112C22.0826 88.2234 22.3551 88.4404 22.7388 88.4404H57.1451C57.4436 88.4404 57.6911 88.305 57.7099 88.1322L58.0083 85.3943C58.0291 85.2042 57.7702 85.0439 57.4436 85.0439H23.887C23.6415 85.0439 23.4231 85.137 23.3483 85.2733Z" fill="white"/>
<path d="M28.7591 88.737H27.8606C27.6817 88.737 27.5454 88.6516 27.5579 88.5479L27.9791 84.9911C27.9916 84.8874 28.1476 84.802 28.3275 84.802H29.2261C29.405 84.802 29.5412 84.8874 29.5287 84.9911L29.1075 88.5479C29.095 88.6526 28.938 88.737 28.7591 88.737Z" fill="#FF725E"/>
<path d="M49.9823 88.737H49.0837C48.9048 88.737 48.7686 88.6516 48.7811 88.5479L49.2023 84.9911C49.2147 84.8874 49.3707 84.802 49.5507 84.802H50.4492C50.6281 84.802 50.7643 84.8874 50.7519 84.9911L50.3307 88.5479C50.3182 88.6526 50.1611 88.737 49.9823 88.737Z" fill="#FF725E"/>
<path d="M27.9676 251.324C43.3557 251.324 55.8303 250.488 55.8303 249.457C55.8303 248.427 43.3557 247.591 27.9676 247.591C12.5795 247.591 0.10498 248.427 0.10498 249.457C0.10498 250.488 12.5795 251.324 27.9676 251.324Z" fill="#D6D6D6"/>
<path d="M44.9475 246.824C40.0179 245.503 34.5922 243.801 31.2351 241.991C31.1415 241.941 31.0427 241.905 30.9481 241.859V221.287H40.8634C42.5035 221.287 43.8326 220.06 43.8326 218.546C43.8326 217.033 42.5035 215.806 40.8634 215.806H30.9481V121.896H25.0107V215.806H15.0953C13.4563 215.806 12.1272 217.033 12.1272 218.546C12.1272 220.06 13.4563 221.287 15.0953 221.287H25.0107V241.858C24.9161 241.904 24.8173 241.94 24.7237 241.99C21.3665 243.8 15.9409 245.502 11.0113 246.823C9.39406 247.256 9.73518 249.455 11.4189 249.455H27.9789H44.5388C46.2236 249.456 46.5647 247.257 44.9475 246.824Z" fill="#3F7FDD"/>
<path d="M46.4734 132.437H9.48583C6.52287 132.437 4.09863 130.199 4.09863 127.464V117.314C4.09863 114.579 6.52287 112.341 9.48583 112.341H46.4734C49.4364 112.341 51.8606 114.579 51.8606 117.314V127.464C51.8606 130.199 49.4364 132.437 46.4734 132.437Z" fill="#3F7FDD"/>
<path d="M9.14551 132.437V134.184C9.14551 135.624 10.8438 136.803 12.9186 136.803H43.0402C45.115 136.803 46.8133 135.625 46.8133 134.184V132.437H9.14551Z" fill="#86B1F2"/>
<path opacity="0.3" d="M9.14551 132.437V134.184C9.14551 135.624 10.8438 136.803 12.9186 136.803H43.0402C45.115 136.803 46.8133 135.625 46.8133 134.184V132.437H9.14551Z" fill="#86B1F2"/>
</svg>
