<svg width="121" height="310" viewBox="0 0 121 310" fill="none" xmlns="http://www.w3.org/2000/svg">
<path d="M65.2159 63.8947L54.9001 60.0336C54.9001 60.0336 41.2865 82.9517 37.3876 84.1085C32.0815 85.6829 21.1084 90.0595 14.5876 90.8793C13.7088 91.8278 12.2591 94.8192 12.3974 95.9097C21.1459 98.6025 40.3651 95.0265 44.4793 92.207C53.858 85.776 65.2159 63.8947 65.2159 63.8947Z" fill="#FFA89B"/>
<path d="M68.3916 58.6943C70.3104 65.2598 59.8906 78.4473 59.8906 78.4473L46.2021 71.3596C46.2021 71.3596 48.7543 65.9385 51.8785 60.4175C56.9235 51.502 66.2003 51.2015 68.3916 58.6943Z" fill="#FF725E"/>
<path opacity="0.2" d="M68.3916 58.6943C70.3104 65.2598 59.8906 78.4473 59.8906 78.4473L46.2021 71.3596C46.2021 71.3596 48.7543 65.9385 51.8785 60.4175C56.9235 51.502 66.2003 51.2015 68.3916 58.6943Z" fill="black"/>
<path opacity="0.2" d="M51.6602 74.1821L57.0359 76.9642L57.9761 61.7328C54.8561 63.9523 52.643 70.631 51.6602 74.1821Z" fill="black"/>
<path d="M59.4081 53.7484C59.4081 53.7484 48.7804 75.5749 54.9767 116.222C67.5961 116.222 90.7173 116.222 96.8575 116.222C97.5231 110.288 95.3224 81.3378 103.299 53.3759C103.299 53.3759 96.2044 52.0463 89.383 51.742C84.0468 51.5039 76.3092 51.3465 71.5792 51.7429C65.3434 52.2652 59.4081 53.7484 59.4081 53.7484Z" fill="#FF725E"/>
<path opacity="0.2" d="M59.4081 53.7484C59.4081 53.7484 48.7804 75.5749 54.9767 116.222C67.5961 116.222 90.7173 116.222 96.8575 116.222C97.5231 110.288 95.3224 81.3378 103.299 53.3759C103.299 53.3759 96.2044 52.0463 89.383 51.742C84.0468 51.5039 76.3092 51.3465 71.5792 51.7429C65.3434 52.2652 59.4081 53.7484 59.4081 53.7484Z" fill="black"/>
<path d="M49.6955 307.456C49.63 308.487 65.5087 309.323 85.1616 309.323C104.814 309.323 120.799 308.487 120.865 307.456C120.93 306.425 105.052 305.59 85.3987 305.59C65.7459 305.589 49.761 306.425 49.6955 307.456Z" fill="#D6D6D6"/>
<path d="M78.6267 281.551L71.1738 284.202L77.5646 299.513L85.0174 296.863L78.6267 281.551Z" fill="#FFA89B"/>
<path d="M110.773 300.076H102.943L100.07 283.337H107.9L110.773 300.076Z" fill="#FFA89B"/>
<path d="M102.439 299.239H111.237C111.557 299.239 111.821 299.444 111.872 299.732L113.011 306.156C113.13 306.823 112.522 307.453 111.783 307.442C108.715 307.393 107.233 307.227 103.365 307.227C100.985 307.227 96.0673 307.455 92.7798 307.455C89.5652 307.455 89.2542 304.455 90.6177 304.184C96.7277 302.965 99.1072 301.285 101.14 299.683C101.506 299.394 101.971 299.239 102.439 299.239Z" fill="#434343"/>
<path d="M76.3705 296.708L84.7123 294.469C85.0243 294.386 85.3457 294.51 85.484 294.768L88.5749 300.524C88.8952 301.12 88.5166 301.869 87.7928 302.051C84.7716 302.813 82.7405 303.289 78.958 304.304C76.3445 305.004 73.6862 306.147 71.1039 306.907C69.3162 307.433 65.1177 307.454 62.9431 307.454C59.7284 307.454 59.0118 304.326 60.3898 304.183C63.877 303.822 64.345 303.989 66.27 303.098C69.4524 301.624 71.9141 300.404 74.6691 297.74C75.1495 297.277 75.7122 296.885 76.3705 296.708Z" fill="#434343"/>
<path d="M15.906 90.8102L7.28964 87.4636L3.74219 96.2745C3.74219 96.2745 8.71442 97.1068 14.3928 96.2745L15.906 90.8102Z" fill="#FFA89B"/>
<path d="M0.886445 87.2477L0.658691 93.1104L3.74229 96.2746L7.28974 87.4637L0.886445 87.2477Z" fill="#FFA89B"/>
<path d="M78.6549 281.534L71.2007 284.19L74.5004 292.081L81.9546 289.425L78.6549 281.534Z" fill="#FFA89B"/>
<path d="M107.903 283.342H100.069L101.554 291.969H109.388L107.903 283.342Z" fill="#FFA89B"/>
<path opacity="0.2" d="M53.6479 105.227C53.7977 106.964 53.9797 108.739 54.2033 110.564L85.3461 101.232C90.2092 99.8899 94.4409 97.0684 97.3269 93.2121C97.4445 90.647 97.6046 87.9542 97.8396 85.1424C97.9468 83.7715 98.0747 82.3699 98.214 80.9501C98.3638 79.4707 98.5343 77.9606 98.7267 76.4419L53.6479 105.227Z" fill="black"/>
<path d="M63.8157 73.7405L62.7549 73.6243C63.3726 68.8339 67.2466 65.0477 71.339 65.1379L71.3078 66.1248C67.775 66.0298 64.371 69.4445 63.8157 73.7405Z" fill="white"/>
<path d="M69.3569 82.6051C69.2987 82.6051 69.2404 82.6041 69.1812 82.6032L69.2124 81.6163C72.7889 81.7372 76.1492 78.2956 76.7045 73.9996L77.7653 74.1168C77.1559 78.839 73.4046 82.6051 69.3569 82.6051Z" fill="white"/>
<path d="M88.7945 33.2371C87.3354 38.5247 85.5996 48.2131 89.3832 51.7411C89.3832 51.7411 86.7405 57.1046 76.0961 57.1046C66.369 57.1046 71.5794 51.7411 71.5794 51.7411C78.0565 50.3327 78.1699 45.958 77.3181 41.8492L88.7945 33.2371Z" fill="#FFA89B"/>
<path d="M84.1155 36.7516L77.3232 41.8463C77.5281 42.8188 77.6737 43.8047 77.6872 44.7628C79.6726 46.5877 83.6579 41.9644 84.0666 39.6057C84.2694 38.4306 84.2881 37.2997 84.1155 36.7516Z" fill="#FFA89B"/>
<path d="M65.6503 33.1718C66.6455 34.8173 68.4021 35.8416 70.0619 36.1824C72.559 36.696 73.8142 34.5753 73.1258 32.4413C72.5059 30.5203 70.4603 27.9389 67.9507 28.3814C65.4787 28.8182 64.5115 31.2902 65.6503 33.1718Z" fill="#FFA89B"/>
<path d="M69.7707 16.248C65.8811 17.8934 64.5103 32.1561 69.4004 34.2652C74.2905 36.3734 77.138 13.1328 69.7707 16.248Z" fill="#434343"/>
<path d="M89.981 25.2796C89.0502 32.4393 88.8973 36.6527 84.7467 40.3276C78.5025 45.8553 69.1363 42.5769 67.7396 35.4297C66.4822 28.9968 68.2159 18.3686 75.9899 15.5193C83.6484 12.7123 90.9118 18.1199 89.981 25.2796Z" fill="#FFA89B"/>
<path d="M77.2046 19.9583C82.9579 18.5999 87.1928 17.6745 85.6817 22.1078C83.6682 28.0137 81.2534 33.7353 84.493 34.0022C86.4628 34.1644 95.1998 30.742 94.0901 27.2822C93.124 24.2678 97.1851 23.4547 97.9339 21.9177C100.631 16.3823 92.9253 17.1014 94.296 13.7519C95.6314 10.4908 88.0883 4.97946 83.9085 7.67226C77.1433 12.0316 65.5161 11.9692 71.6292 4.81914C76.0066 -0.301498 68.1962 0.749703 68.1962 0.749703C68.1962 0.749703 72.9136 3.33307 64.9732 7.32667C56.5555 11.5583 64.2608 23.015 77.2046 19.9583Z" fill="#434343"/>
<path d="M92.9837 33.1718C91.7783 34.8173 89.8928 35.8416 88.1893 36.1824C85.6267 36.696 84.6418 34.5753 85.6007 32.4413C86.4649 30.5203 88.8382 27.9389 91.2916 28.3814C93.7075 28.8182 94.3606 31.2902 92.9837 33.1718Z" fill="#FFA89B"/>
<path d="M54.977 116.222C54.977 116.222 47.9476 174.299 47.3985 196.341C46.8286 219.268 71.2228 290.799 71.2228 290.799L83.7142 285.957C83.7142 285.957 69.1698 220.607 71.1906 198.09C73.3933 173.544 82.5068 116.221 82.5068 116.221H54.977V116.222Z" fill="#FF725E"/>
<path opacity="0.2" d="M72.4466 132.169C66.8462 142.902 70.6193 164.122 73.6541 176.7C74.8085 167.821 76.1761 158.184 77.4802 149.266C77.3523 135.553 76.1979 124.968 72.4466 132.169Z" fill="black"/>
<path d="M83.1494 282.193C83.2076 282.171 84.6303 285.868 84.6303 285.868L70.2326 291.448L67.9644 287.555L83.1494 282.193Z" fill="#FF725E"/>
<path d="M69.8335 116.222C69.8335 116.222 75.2113 171.459 78.7754 192.153C82.6785 214.813 98.0102 290.299 98.0102 290.299H112.352C112.352 290.299 103.758 216.643 102.135 194.207C100.373 169.856 96.8569 116.222 96.8569 116.222H69.8335Z" fill="#FF725E"/>
<path d="M112.571 286.85C112.633 286.85 113.051 290.55 113.051 290.55H97.2874L96.1621 286.303L112.571 286.85Z" fill="#FF725E"/>
<path opacity="0.2" d="M107.077 282.477C107.009 282.477 106.952 282.43 106.945 282.368C106.867 281.698 99.1175 215.199 97.6594 195.041C96.0776 173.166 92.8962 124.662 92.864 124.174C92.8598 124.106 92.916 124.047 92.9888 124.043C92.9919 124.043 92.995 124.043 92.9971 124.043C93.0668 124.043 93.1271 124.094 93.1313 124.16C93.1625 124.646 96.3438 173.15 97.9267 195.024C99.3838 215.178 107.132 281.672 107.21 282.341C107.218 282.409 107.165 282.469 107.092 282.476C107.086 282.477 107.081 282.477 107.077 282.477Z" fill="black"/>
<path d="M78.0889 27.2812C78.0514 27.8639 77.6875 28.3372 77.2746 28.3372C76.8617 28.3372 76.557 27.8649 76.5944 27.2812C76.6308 26.6985 76.9958 26.2252 77.4087 26.2252C77.8216 26.2252 78.1263 26.6985 78.0889 27.2812Z" fill="#434343"/>
<path d="M70.9502 27.2812C70.9128 27.8639 70.5488 28.3372 70.1359 28.3372C69.723 28.3372 69.4183 27.8649 69.4557 27.2812C69.4932 26.6985 69.8572 26.2252 70.2701 26.2252C70.6829 26.2252 70.9877 26.6985 70.9502 27.2812Z" fill="#434343"/>
<path d="M73.201 27.5712C73.201 27.5712 71.5515 30.935 69.8667 32.5574C70.9233 33.5203 72.8505 33.0796 72.8505 33.0796L73.201 27.5712Z" fill="#FF725E"/>
<path d="M73.3826 35.5257C73.2807 35.5257 73.2016 35.449 73.2079 35.3549C73.2141 35.2608 73.3025 35.184 73.4044 35.184C76.1771 35.184 77.5842 33.3965 77.5988 33.3782C77.6612 33.2995 77.7776 33.2765 77.8588 33.3283C77.9409 33.3801 77.9586 33.4858 77.8972 33.5654C77.8348 33.6442 76.3539 35.5257 73.3826 35.5257Z" fill="#434343"/>
<path d="M79.3586 25.5081C79.2515 25.5465 79.1309 25.5407 79.031 25.4822C77.6665 24.6892 76.3946 25.221 76.3821 25.2278C76.2074 25.3103 75.9755 25.2383 75.8975 25.0674C75.8195 24.8966 75.911 24.6921 76.1003 24.6105C76.1679 24.5807 77.7601 23.9135 79.4533 24.8975C79.6228 24.9964 79.6644 25.2066 79.5479 25.3679C79.5001 25.4332 79.4325 25.4812 79.3586 25.5081Z" fill="#434343"/>
<path d="M68.1901 23.5929C68.1391 23.5794 68.0892 23.5554 68.0487 23.519C67.9031 23.3942 67.9031 23.1782 68.0487 23.0361C69.5005 21.6201 71.1832 21.8361 71.2539 21.8457C71.4515 21.8658 71.5836 22.0473 71.541 22.2345C71.4983 22.4207 71.3028 22.5494 71.1031 22.5225C71.047 22.5148 69.7335 22.3602 68.5739 23.4902C68.4709 23.5919 68.3201 23.6274 68.1901 23.5929Z" fill="#434343"/>
<path d="M107.319 62.8243L96.5 60.166C96.5 60.166 85.892 84.2697 82.1449 85.8431C77.0458 87.9849 64.1352 95.3922 58.6482 98.9644C58.3435 100.159 58.5827 103.342 59.2733 104.209C68.6031 102.644 86.5524 96.2745 90.2954 93.0364C98.8296 85.655 107.319 62.8243 107.319 62.8243Z" fill="#FFA89B"/>
<path d="M99.7695 300.501C99.1736 300.501 98.6224 300.407 98.2855 300.133C98.0182 299.915 97.909 299.61 97.9599 299.228C97.9974 298.943 98.169 298.808 98.3083 298.744C99.1913 298.335 101.634 299.766 101.91 299.931C101.97 299.968 101.999 300.036 101.984 300.105C101.967 300.172 101.909 300.226 101.835 300.242C101.283 300.363 100.493 300.501 99.7695 300.501ZM98.7015 299.005C98.6047 299.005 98.5226 299.019 98.4581 299.049C98.4071 299.073 98.3458 299.117 98.3291 299.249C98.2927 299.522 98.3614 299.725 98.5413 299.871C98.9479 300.204 99.9671 300.249 101.313 300.001C100.458 299.529 99.3015 299.005 98.7015 299.005Z" fill="#FF725E"/>
<path d="M101.791 300.247C101.761 300.247 101.731 300.24 101.704 300.227C100.919 299.819 99.4533 298.236 99.6707 297.43C99.7091 297.284 99.8423 297.032 100.289 296.982C100.582 296.948 100.841 297.023 101.065 297.201C101.932 297.887 101.986 299.973 101.988 300.061C101.99 300.124 101.953 300.184 101.894 300.218C101.862 300.237 101.827 300.247 101.791 300.247ZM100.398 297.317C100.371 297.317 100.342 297.32 100.313 297.323C100.071 297.349 100.043 297.452 100.032 297.495C99.9026 297.971 100.825 299.169 101.595 299.733C101.542 299.123 101.369 297.907 100.815 297.467C100.687 297.366 100.551 297.317 100.398 297.317Z" fill="#FF725E"/>
<path d="M72.1535 299.307C71.388 299.478 70.658 299.529 70.192 299.295C69.8956 299.147 69.7251 298.9 69.6856 298.563C69.6616 298.361 69.7355 298.186 69.8967 298.054C70.7349 297.366 74.1274 298.106 74.5122 298.192C74.5871 298.21 74.6401 298.269 74.6432 298.342C74.6464 298.415 74.6006 298.483 74.5268 298.515C73.8976 298.778 73.0031 299.117 72.1535 299.307ZM70.4624 298.166C70.3199 298.198 70.2076 298.243 70.1338 298.304C70.0683 298.357 70.0443 298.419 70.0547 298.507C70.0818 298.736 70.19 298.895 70.3834 298.993C70.9356 299.27 72.218 299.05 73.8684 298.413C72.7088 298.188 71.1925 298.002 70.4624 298.166Z" fill="#FF725E"/>
<path d="M74.4924 298.524C74.4664 298.53 74.4404 298.53 74.4144 298.527C73.4067 298.354 71.2538 297.25 71.2341 296.424C71.2289 296.231 71.3277 295.966 71.8206 295.809C72.1784 295.685 72.5466 295.71 72.8919 295.866C74.0223 296.381 74.613 298.224 74.638 298.302C74.6557 298.359 74.639 298.423 74.5933 298.47C74.5652 298.498 74.5298 298.516 74.4924 298.524ZM72.0328 296.099C71.9974 296.107 71.9611 296.119 71.9236 296.129C71.6012 296.234 71.6043 296.356 71.6043 296.396C71.6168 296.891 73.1113 297.803 74.1669 298.111C73.9568 297.581 73.4514 296.511 72.7109 296.174C72.4883 296.073 72.2647 296.048 72.0328 296.099Z" fill="#FF725E"/>
<path d="M59.5288 98.3971L48.6837 103.005L47.4253 105.829L51.4334 108.319C51.4334 108.319 58.9131 107.567 61.0441 103.131L59.5288 98.3971Z" fill="#FFA89B"/>
<path d="M59.9906 104.372C59.3125 100.653 57.9876 98.9567 57.9751 98.9404L59.6849 97.7567C59.7514 97.8383 61.3229 99.7967 62.0987 104.045L59.9906 104.372Z" fill="#434343"/>
<path d="M61.8375 99.7593C62.1891 100.563 61.6243 101.531 60.575 101.922C59.5256 102.314 58.391 101.98 58.0395 101.176C57.688 100.373 58.2527 99.4051 59.302 99.0134C60.3503 98.6227 61.486 98.9558 61.8375 99.7593Z" fill="#434343"/>
<path d="M41.356 106.726L42.7964 108.073L52.5276 104.231L48.6838 103.006L41.356 106.726Z" fill="#FFA89B"/>
<path opacity="0.2" d="M83.1494 282.193C83.2076 282.171 84.6303 285.868 84.6303 285.868L70.2326 291.448L67.9644 287.555L83.1494 282.193Z" fill="black"/>
<path opacity="0.2" d="M112.571 286.85C112.633 286.85 113.051 290.55 113.051 290.55H97.2874L96.1621 286.303L112.571 286.85Z" fill="black"/>
<path d="M110.138 60.0613C112.999 68.5737 101.86 80.2022 101.86 80.2022L86.418 74.3845C86.418 74.3845 88.5936 68.2002 92.7339 59.9145C97.4409 50.4978 107.25 51.4703 110.138 60.0613Z" fill="#FF725E"/>
<path opacity="0.2" d="M110.138 60.0613C112.999 68.5737 101.86 80.2022 101.86 80.2022L86.418 74.3845C86.418 74.3845 88.5936 68.2002 92.7339 59.9145C97.4409 50.4978 107.25 51.4703 110.138 60.0613Z" fill="black"/>
</svg>
