<svg width="135" height="37" viewBox="0 0 135 37" fill="none" xmlns="http://www.w3.org/2000/svg">
<path d="M122.556 11.0675C124.282 12.3727 125.509 13.6116 126.239 14.7841C126.992 15.9344 127.368 17.1843 127.368 18.5338C127.368 20.0823 126.992 21.5645 126.239 22.9803C125.487 24.3962 124.37 25.458 122.888 26.166C122.025 26.5642 121.14 26.8296 120.233 26.9624C119.348 27.0951 118.353 27.1615 117.247 27.1615C117.136 27.1615 117.026 26.907 116.915 26.3982C116.804 25.8673 116.749 25.1262 116.749 24.1749C116.749 22.6706 116.882 21.6309 117.147 21.0557C117.391 20.4805 117.645 20.1929 117.91 20.1929C119.282 20.1929 120.366 20.0823 121.162 19.8611C121.981 19.6399 122.39 19.3634 122.39 19.0315C122.39 18.6112 121.97 17.9475 121.129 17.0405C120.289 16.1335 118.829 14.9721 116.749 13.5563L117.91 7.58326L134.004 0.614746L135 5.92409L122.556 11.0675Z" fill="#A72F3B"/>
<path d="M117.24 27.1615C114.807 27.1615 112.893 26.5088 111.499 25.2036C110.106 23.8763 109.364 21.8189 109.276 19.0315L108.612 1.1125L114.253 0.614746C114.231 2.73848 114.198 5.54801 114.154 9.04333C114.132 12.5165 114.11 14.6292 114.088 15.3814C114.088 17.0848 114.375 18.3126 114.95 19.0647C115.548 19.8169 116.532 20.1929 117.904 20.1929L117.24 27.1615Z" fill="black"/>
<path d="M104.781 11.2329C105.223 14.33 105.444 16.8741 105.444 18.8651C105.444 21.4313 104.902 23.4555 103.818 24.9376C102.757 26.4198 101.307 27.1609 99.4713 27.1609C98.0334 27.1609 96.8277 26.9397 95.8544 26.4973C94.881 26.0327 94.2062 25.4465 93.8302 24.7385C93.432 25.4907 92.8125 26.088 91.9719 26.5305C91.1313 26.9508 90.2021 27.1609 89.1845 27.1609C87.9899 27.1609 86.9944 26.9397 86.198 26.4973C85.4016 26.0327 84.8817 25.4022 84.6384 24.6058C84.1074 25.5128 83.3221 26.1654 82.2824 26.5636C81.2647 26.9618 79.86 27.1609 78.0681 27.1609C77.9575 27.1609 77.8468 26.9065 77.7362 26.3977C77.6256 25.8668 77.5703 25.1257 77.5703 24.1744C77.5703 22.6701 77.703 21.6304 77.9685 21.0552C78.2119 20.48 78.4663 20.1924 78.7317 20.1924C80.1918 20.1924 81.2758 19.9933 81.9837 19.5951C82.6916 19.1969 83.0456 18.5111 83.0456 17.5378V15.2149L87.3594 14.8831V17.2059C87.3594 19.1969 88.1337 20.1924 89.6822 20.1924C90.4344 20.1924 91.0096 19.9601 91.4078 19.4956C91.806 19.031 92.0051 18.3784 92.0051 17.5378V15.5468L96.3189 15.2149V17.2059C96.3189 18.2014 96.5955 18.9536 97.1485 19.4624C97.7237 19.9491 98.5533 20.1924 99.6373 20.1924C100.19 20.1924 100.467 19.9712 100.467 19.5288C100.467 18.9978 100.378 18.1351 100.201 16.9405C100.024 15.7237 99.7811 14.319 99.4713 12.7262L104.781 11.2329Z" fill="black"/>
<path d="M78.0667 27.1611C76.5624 27.1611 75.2904 26.9067 74.2506 26.3979C73.233 25.8669 72.5583 25.148 72.2264 24.2409C71.7176 25.148 70.8438 25.8669 69.6049 26.3979C68.3661 26.9067 66.8175 27.1611 64.9593 27.1611H64.2956C64.185 27.1611 64.0744 26.9067 63.9638 26.3979C63.8532 25.8669 63.7979 25.1258 63.7979 24.1746C63.7979 22.6703 63.9306 21.6305 64.1961 21.0553C64.4394 20.4802 64.6938 20.1926 64.9593 20.1926H65.6229C67.5697 20.1926 68.9081 19.8829 69.6381 19.2634C70.3903 18.644 70.7664 17.737 70.7664 16.5424V14.2196L75.0802 13.8877V16.3765C75.0802 17.7481 75.3678 18.7325 75.943 19.3298C76.5403 19.905 77.4694 20.1926 78.7304 20.1926L78.0667 27.1611ZM70.4345 6.7533H70.7664H76.2416V11.2331H70.7664H70.4345H64.9593V6.7533H70.4345Z" fill="black"/>
<path d="M62.8752 27.1622C62.2116 29.8832 60.6409 31.9295 58.1632 33.3011C56.6589 34.1197 54.8117 34.7833 52.6216 35.2921C50.4315 35.8231 47.7989 36.2102 44.7239 36.4536C44.4363 35.0156 44.0492 32.9693 43.5625 30.3146C48.8276 29.9607 52.6437 29.4629 55.0108 28.8214C57.4 28.1798 58.7162 27.4055 58.9596 26.4985C57.3225 26.7198 55.6191 26.8304 53.8494 26.8304C52.1238 26.8304 50.8075 26.3658 49.9005 25.4367C48.9935 24.5075 48.54 23.2023 48.54 21.521C48.54 19.7291 48.8497 18.0257 49.4691 16.4108C50.1107 14.7737 50.9845 13.4464 52.0906 12.4288C53.1967 11.4112 54.4467 10.9023 55.8404 10.9023C57.7429 10.9023 59.3467 11.7098 60.6519 13.3247C61.9572 14.9175 62.7867 17.2072 63.1407 20.1937H64.9658L64.3021 27.1622H62.8752ZM52.6879 19.0323C52.6879 19.4747 52.8428 19.8066 53.1525 20.0278C53.4843 20.249 54.0485 20.3596 54.8449 20.3596L58.4287 20.2932C57.8314 17.904 56.6921 16.7094 55.0108 16.7094C54.3913 16.7094 53.8494 16.9638 53.3848 17.4727C52.9202 17.9815 52.6879 18.5013 52.6879 19.0323Z" fill="black"/>
<path d="M39.7402 10.4034C40.979 10.4034 41.9745 10.7463 42.7267 11.4321C43.4788 12.0958 44.0319 13.1355 44.3858 14.5514C44.5628 15.2372 44.7177 16.0889 44.8504 17.1065C44.9831 18.102 45.0495 18.9648 45.0495 19.6948C45.0495 21.0442 44.7951 22.3163 44.2863 23.5109C43.7775 24.7055 43.1027 25.6678 42.2621 26.3978C41.4436 27.1279 40.6029 27.4929 39.7402 27.4929C38.3022 27.4929 36.8643 27.1611 35.4263 26.4974C33.9884 25.8337 32.9929 25.0926 32.4398 24.2741C31.6434 25.336 30.7917 26.0881 29.8847 26.5306C28.9777 26.9509 28.0043 27.1611 26.9645 27.1611C26.8539 27.1611 26.7433 26.9066 26.6327 26.3978C26.5221 25.8669 26.4668 25.1258 26.4668 24.1745C26.4668 22.6702 26.5995 21.6305 26.865 21.0553C27.1083 20.4801 27.3627 20.1925 27.6282 20.1925C28.314 20.1925 28.8671 20.1151 29.2874 19.9603C29.7298 19.7833 30.128 19.4846 30.482 19.0643C30.8581 18.6219 31.2895 17.9471 31.7761 17.0401C32.7495 15.2703 33.6123 13.9209 34.3644 12.9917C35.1166 12.0405 35.9019 11.3768 36.7205 11.0007C37.5611 10.6025 38.5677 10.4034 39.7402 10.4034ZM35.3268 18.6329C35.5701 19.0532 36.2338 19.4736 37.3178 19.8939C38.4018 20.3142 39.3751 20.5244 40.2379 20.5244C40.5476 20.5244 40.7025 20.3585 40.7025 20.0266C40.7025 19.6505 40.6472 19.186 40.5366 18.6329C40.4481 18.0577 40.3485 17.5821 40.2379 17.206C39.9946 16.4318 39.5521 16.0446 38.9106 16.0446C38.3354 16.0446 37.8598 16.111 37.4837 16.2437C37.1076 16.3765 36.7536 16.6309 36.4218 17.0069C36.1121 17.3609 35.7471 17.9029 35.3268 18.6329Z" fill="black"/>
<path d="M25.6411 27.1608C25.6411 28.3111 25.3645 29.4062 24.8115 30.4459C24.2805 31.4857 23.5063 32.4369 22.4886 33.2997C21.3162 34.3173 19.6238 35.1469 17.4116 35.7884C15.1993 36.4521 12.9097 36.7839 10.5426 36.7839C7.04729 36.7839 4.42581 36.065 2.67815 34.627C0.952612 33.2112 0.0898438 31.0543 0.0898438 28.1563C0.0898438 25.5016 0.753512 22.0173 2.08085 17.7035L6.22877 18.8649C5.80845 20.4577 5.5098 21.7519 5.33282 22.7474C5.15584 23.7207 5.06735 24.5835 5.06735 25.3357C5.06735 26.7957 5.58722 27.9019 6.62697 28.654C7.68884 29.4283 9.38119 29.8154 11.704 29.8154C13.4074 29.8154 14.956 29.6827 16.3497 29.4172C17.7434 29.1739 18.8385 28.8642 19.6349 28.4881C20.4313 28.112 20.8295 27.7802 20.8295 27.4926C20.8295 27.3156 20.6193 27.1608 20.199 27.028C19.7787 26.8732 19.0044 26.7073 17.8761 26.5303C16.7479 26.3533 15.0777 26.121 12.8654 25.8334L14.0269 20.0263C16.4603 20.1369 20.2764 20.1922 25.4751 20.1922H27.6321L26.9684 27.1608H25.6411Z" fill="black"/>
</svg>
