<svg width="85" height="16" viewBox="0 0 85 16" fill="none" xmlns="http://www.w3.org/2000/svg">
<path d="M82.3944 3.89646C83.1355 3.89646 83.7039 4.27964 84.0997 5.04599C84.504 5.81235 84.7061 6.82713 84.7061 8.09035C84.7061 8.63775 84.5924 9.15146 84.365 9.63148C84.1376 10.1031 83.8176 10.4273 83.405 10.6042C83.0934 10.7389 82.6597 10.8358 82.1038 10.8947C81.5564 10.9537 80.9585 10.9831 80.3101 10.9831H79.3879C79.3542 10.9831 79.3205 10.9326 79.2869 10.8315C79.2532 10.7305 79.2363 10.5915 79.2363 10.4147C79.2363 10.1283 79.27 9.90939 79.3374 9.7578C79.3963 9.5978 79.4637 9.51779 79.5395 9.51779H80.6132C82.028 9.51779 82.9712 9.41673 83.4429 9.21462C83.6113 9.13883 83.6955 8.94934 83.6955 8.64617C83.6955 8.41879 83.6913 8.25457 83.6829 8.15351C83.0765 8.3051 82.487 8.38089 81.9144 8.38089C81.3585 8.38089 80.9375 8.25036 80.6511 7.9893C80.3732 7.71981 80.2343 7.35769 80.2343 6.90293C80.2343 6.39764 80.3269 5.9134 80.5122 5.45022C80.6975 4.98704 80.9543 4.61229 81.2827 4.32596C81.6112 4.03963 81.9817 3.89646 82.3944 3.89646ZM81.2322 6.39764C81.2322 6.60817 81.308 6.7766 81.4596 6.90293C81.6196 7.02083 81.8428 7.07978 82.1291 7.07978C82.626 7.07978 83.1018 7.03767 83.5565 6.95346C83.4471 6.36395 83.2744 5.91761 83.0386 5.61444C82.8028 5.31127 82.5207 5.15968 82.1923 5.15968C81.9228 5.15968 81.6954 5.28179 81.5101 5.52602C81.3248 5.77024 81.2322 6.06078 81.2322 6.39764ZM81.5228 2.58271V1.15527H83.0639V2.58271H81.5228Z" fill="black"/>
<path d="M79.3882 10.9838C78.7987 10.9838 78.3776 10.8827 78.125 10.6806C78.0997 11.3375 77.9608 11.8975 77.7081 12.3607C77.4639 12.8323 77.0513 13.2407 76.4702 13.586C75.8975 13.9397 75.1101 14.2345 74.108 14.4703L73.6279 13.1818C74.5374 12.946 75.2364 12.706 75.7249 12.4617C76.2217 12.2175 76.5586 11.9733 76.7355 11.7291C76.9207 11.4848 77.0134 11.2154 77.0134 10.9206C77.0134 10.4153 76.9628 9.84266 76.8618 9.20263C76.7691 8.55417 76.6428 7.92256 76.4828 7.3078L77.7081 6.90356C77.8345 7.68676 77.9566 8.25521 78.0745 8.60891C78.2008 8.95419 78.3692 9.1942 78.5798 9.32895C78.7903 9.45527 79.1103 9.51843 79.5398 9.51843L79.3882 10.9838Z" fill="black"/>
<path d="M71.609 6.20776C72.1142 6.20776 72.5437 6.39304 72.8974 6.76358C73.2596 7.13413 73.5291 7.61415 73.7059 8.20365C73.8912 8.78473 73.9838 9.3995 73.9838 10.048C73.9838 10.8396 73.8533 11.488 73.5922 11.9933C73.3312 12.4986 72.9017 12.9239 72.3037 13.2692C71.3184 13.8418 69.7268 14.225 67.5288 14.4187C67.4445 14.0903 67.3435 13.6271 67.2256 13.0292C68.6993 12.8944 69.8531 12.7302 70.6868 12.5365C71.5205 12.3428 72.1058 12.107 72.4427 11.8291C72.788 11.5596 72.9606 11.2312 72.9606 10.8438V10.7427C72.4216 10.9112 71.7984 10.9954 71.091 10.9954C70.5352 10.9954 70.1141 10.8606 69.8278 10.5911C69.5415 10.3132 69.3983 9.93426 69.3983 9.45424C69.3983 8.89 69.491 8.35945 69.6762 7.86258C69.8699 7.36572 70.1352 6.9657 70.4721 6.66252C70.8089 6.35935 71.1879 6.20776 71.609 6.20776ZM70.4089 8.88579C70.4089 9.09633 70.4847 9.26476 70.6363 9.39108C70.7963 9.5174 71.0279 9.58056 71.3311 9.58056C71.8279 9.58056 72.3332 9.53425 72.8469 9.44161C72.729 8.85211 72.548 8.39314 72.3037 8.0647C72.0679 7.73626 71.7816 7.57204 71.4447 7.57204C71.15 7.57204 70.9016 7.70679 70.6994 7.97627C70.5057 8.23734 70.4089 8.54051 70.4089 8.88579Z" fill="black"/>
<path d="M67.3162 6.24617C67.3836 6.64198 67.4425 7.10937 67.4931 7.64834C67.5436 8.17889 67.5689 8.63365 67.5689 9.01262C67.5689 9.61054 67.4215 10.0906 67.1267 10.4527C66.8404 10.8064 66.4825 10.9832 66.053 10.9832C65.5814 10.9832 65.1687 10.899 64.815 10.7306C64.4698 10.5622 64.2255 10.3306 64.0824 10.0358C63.8971 10.339 63.6571 10.5748 63.3623 10.7432C63.0676 10.9032 62.7392 10.9832 62.377 10.9832C61.9728 10.9832 61.6191 10.9032 61.3159 10.7432C61.0127 10.5748 60.8106 10.3348 60.7096 10.0232C60.5075 10.3432 60.2001 10.5832 59.7874 10.7432C59.3748 10.9032 58.8274 10.9832 58.1452 10.9832C58.1115 10.9832 58.0779 10.9327 58.0442 10.8317C58.0105 10.7306 57.9937 10.5916 57.9937 10.4148C57.9937 10.1285 58.0273 9.90951 58.0947 9.75792C58.1537 9.59791 58.221 9.51791 58.2968 9.51791C59.0042 9.51791 59.5264 9.41264 59.8632 9.2021C60.2001 8.98314 60.3685 8.63786 60.3685 8.16626V7.43359L61.4422 7.34517V8.27995C61.4422 8.66734 61.5307 8.97051 61.7075 9.18947C61.8928 9.40843 62.1623 9.51791 62.516 9.51791C62.836 9.51791 63.1013 9.40422 63.3118 9.17684C63.5308 8.94946 63.6402 8.67576 63.6402 8.35575V7.55992L64.714 7.47149V8.27995C64.714 8.65892 64.8361 8.96209 65.0803 9.18947C65.333 9.40843 65.6782 9.51791 66.1162 9.51791C66.2088 9.51791 66.2846 9.49264 66.3435 9.44212C66.4025 9.38316 66.432 9.30737 66.432 9.21474C66.432 8.98736 66.3941 8.61681 66.3183 8.1031C66.2509 7.58097 66.1709 7.07989 66.0783 6.59987L67.3162 6.24617ZM63.1476 3.80815V2.59546H64.5624V3.80815H63.1476ZM63.7918 4.38923H63.9182H65.573V5.57666H63.9182H63.7918H62.137V4.38923H63.7918Z" fill="black"/>
<path d="M51.8678 2.65893L51.7414 1.81258L55.6448 0.0440674L55.8343 0.839897L51.8678 2.65893ZM58.146 10.9836C57.6828 10.9836 57.2617 10.9204 56.8827 10.7941C56.5122 10.6678 56.1164 10.4446 55.6953 10.1246C55.2742 9.80455 54.7605 9.33716 54.1542 8.72239C54.1037 9.10978 53.9815 9.45927 53.7879 9.77087C53.5942 10.074 53.3626 10.3056 53.0931 10.4656C52.8152 10.6256 52.4657 10.752 52.0446 10.8446C51.6235 10.9372 51.194 10.9836 50.7561 10.9836C50.7224 10.9836 50.6888 10.9372 50.6551 10.8446C50.6214 10.7435 50.6045 10.5962 50.6045 10.4025C50.6045 10.1246 50.6382 9.90982 50.7056 9.75823C50.7645 9.59823 50.8319 9.51822 50.9077 9.51822C51.5646 9.51822 52.0993 9.44243 52.512 9.29084C52.9247 9.13925 53.131 8.94135 53.131 8.69713C53.131 8.50343 53.0762 8.30132 52.9668 8.09078C52.8573 7.88025 52.6131 7.5897 52.2341 7.21916C51.8551 6.84019 51.2825 6.35175 50.5161 5.75382L50.8193 4.14953L57.2743 1.1557L57.5522 2.3305L51.6404 5.04642C52.5078 5.69487 53.392 6.41912 54.2931 7.21916C55.0005 7.85077 55.569 8.32658 55.9985 8.6466C56.428 8.96662 56.8154 9.194 57.1607 9.32874C57.5059 9.45506 57.8849 9.51822 58.2976 9.51822L58.146 10.9836Z" fill="black"/>
<path d="M50.7452 10.9831C49.9115 10.9831 49.2841 10.7684 48.863 10.3389C48.4504 9.90097 48.2314 9.22725 48.2061 8.31773L48.0293 1.25633L49.3304 1.15527L49.3178 7.62296C49.3094 8.24615 49.4315 8.71775 49.6841 9.03777C49.9452 9.35778 50.3536 9.51779 50.9094 9.51779L50.7452 10.9831Z" fill="black"/>
<path d="M43.092 4.69202C43.9005 5.36573 44.5279 5.93418 44.9742 6.39736C45.4205 6.86054 45.7405 7.27741 45.9342 7.64795C46.1279 8.0185 46.2248 8.38904 46.2248 8.75959C46.2248 9.22277 46.1027 9.627 45.8584 9.97228C45.6142 10.3176 45.2858 10.5828 44.8731 10.7681C44.4942 10.9534 44.0352 11.046 43.4962 11.046C42.8815 11.046 42.4225 10.8986 42.1193 10.6039C41.8161 10.3007 41.6646 9.90491 41.6646 9.41646C41.6646 8.608 42.1025 7.60584 42.9783 6.41L42.3593 5.87944L43.092 4.69202ZM42.7636 8.78485C42.7636 8.99539 42.8436 9.17224 43.0036 9.3154C43.1636 9.45857 43.4036 9.53015 43.7236 9.53015C44.0941 9.53015 44.4268 9.47962 44.7215 9.37856C45.0247 9.27751 45.1763 9.15961 45.1763 9.02486C45.1763 8.81433 45.071 8.5701 44.8605 8.29219C44.6584 8.00586 44.2668 7.59321 43.6857 7.05424C43.3825 7.44163 43.1509 7.78691 42.9909 8.09008C42.8393 8.38483 42.7636 8.61642 42.7636 8.78485Z" fill="black"/>
<path d="M38.7703 11.5595L38.5303 1.75694L39.8314 1.65588L39.7935 11.4711L38.7703 11.5595Z" fill="black"/>
<path d="M36.3552 6.60754C36.431 7.01177 36.5068 7.48338 36.5826 8.02235C36.6668 8.56133 36.7089 8.96134 36.7089 9.22241C36.7089 9.60138 36.6121 9.97613 36.4184 10.3467C36.2247 10.7088 35.9636 10.9699 35.6352 11.1299C35.1636 11.3657 34.4141 11.4836 33.3866 11.4836C33.353 11.4836 33.3193 11.433 33.2856 11.332C33.2519 11.2309 33.2351 11.092 33.2351 10.9151C33.2351 10.6288 33.2687 10.4098 33.3361 10.2583C33.3951 10.0982 33.4624 10.0182 33.5382 10.0182C34.8941 10.0182 35.572 9.87086 35.572 9.57611C35.572 9.34873 35.5299 8.96977 35.4457 8.43921C35.3615 7.90024 35.252 7.40758 35.1173 6.96125L36.3552 6.60754ZM34.2456 12.8858H34.372H36.0268V14.0732H34.372H34.2456H32.5908V12.8858H34.2456Z" fill="black"/>
<path d="M33.3793 11.4836C32.2929 11.4836 31.615 11.1299 31.3455 10.4225C31.1602 10.7677 30.8444 11.033 30.3981 11.2183C29.9518 11.3951 29.3791 11.4836 28.6801 11.4836H28.4275C28.3938 11.4836 28.3601 11.433 28.3264 11.332C28.2927 11.2309 28.2759 11.092 28.2759 10.9151C28.2759 10.6288 28.3096 10.4098 28.3769 10.2582C28.4359 10.0982 28.5033 10.0182 28.5791 10.0182H28.8317C29.5812 10.0182 30.1244 9.90032 30.4613 9.66452C30.8065 9.42872 30.9792 9.0666 30.9792 8.57815V7.55494L32.0529 7.46652V8.56552C32.0529 9.04554 32.1666 9.40767 32.394 9.65189C32.6298 9.89611 33.013 10.0182 33.5435 10.0182L33.3793 11.4836ZM30.0823 6.07697V4.64954H31.6234V6.07697H30.0823Z" fill="black"/>
<path d="M28.4203 11.4844C27.3339 11.4844 26.656 11.1307 26.3865 10.4233C26.2012 10.7686 25.8854 11.0338 25.4391 11.2191C24.9928 11.396 24.4201 11.4844 23.7211 11.4844H23.4685C23.4348 11.4844 23.4011 11.4339 23.3674 11.3328C23.3337 11.2317 23.3169 11.0928 23.3169 10.9159C23.3169 10.6296 23.3506 10.4107 23.418 10.2591C23.4769 10.0991 23.5443 10.0191 23.6201 10.0191H23.8727C24.6222 10.0191 25.1654 9.90116 25.5023 9.66535C25.8475 9.42955 26.0202 9.06743 26.0202 8.57898V7.55578L27.0939 7.46735V8.56635C27.0939 9.04638 27.2076 9.4085 27.435 9.65272C27.6708 9.89694 28.054 10.0191 28.5845 10.0191L28.4203 11.4844ZM25.7044 4.89038H25.8307H27.4855V6.07781H25.8307H25.7044H24.0496V4.89038H25.7044Z" fill="black"/>
<path d="M23.4688 11.4843C22.8456 11.4843 22.4077 11.3706 22.155 11.1432C22.054 11.7074 21.835 12.2169 21.4981 12.6717C21.1613 13.1264 20.6981 13.5096 20.1086 13.8212C19.2075 14.2928 18.0201 14.6591 16.5463 14.9202L16.3063 14.1497L16.1421 13.6317C18.0538 13.2864 19.3549 12.8822 20.0454 12.419C20.7444 11.9559 21.0939 11.4548 21.0939 10.9158C21.0939 10.6379 21.0434 10.1958 20.9423 9.58942C20.8413 8.97466 20.7149 8.38094 20.5634 7.80828L21.7887 7.40405C21.915 8.18725 22.0371 8.7557 22.155 9.1094C22.2813 9.45468 22.4498 9.69469 22.6603 9.82944C22.8708 9.95576 23.1909 10.0189 23.6204 10.0189L23.4688 11.4843Z" fill="black"/>
<path d="M17.8877 6.60803C17.9635 7.01227 18.0393 7.48387 18.1151 8.02284C18.1993 8.56182 18.2414 8.96184 18.2414 9.2229C18.2414 9.60187 18.1446 9.97662 17.9509 10.3472C17.7572 10.7093 17.4961 10.9704 17.1677 11.1304C16.6961 11.3662 15.9466 11.4841 14.9192 11.4841C14.8855 11.4841 14.8518 11.4335 14.8181 11.3325C14.7844 11.2314 14.7676 11.0925 14.7676 10.9156C14.7676 10.6293 14.8013 10.4103 14.8686 10.2587C14.9276 10.0987 14.995 10.0187 15.0708 10.0187C16.4266 10.0187 17.1045 9.87135 17.1045 9.5766C17.1045 9.34922 17.0624 8.97026 16.9782 8.4397C16.894 7.90073 16.7845 7.40807 16.6498 6.96174L17.8877 6.60803ZM16.2329 5.44587V4.01843H17.774V5.44587H16.2329Z" fill="black"/>
<path d="M14.912 11.4844C13.8256 11.4844 13.1477 11.1307 12.8782 10.4233C12.6929 10.7686 12.3771 11.0338 11.9308 11.2191C11.4845 11.396 10.9118 11.4844 10.2128 11.4844H9.96018C9.92649 11.4844 9.89281 11.4339 9.85912 11.3328C9.82544 11.2317 9.80859 11.0928 9.80859 10.9159C9.80859 10.6296 9.84228 10.4107 9.90965 10.2591C9.9686 10.0991 10.036 10.0191 10.1118 10.0191H10.3644C11.1139 10.0191 11.6571 9.90116 11.994 9.66535C12.3392 9.42955 12.5119 9.06743 12.5119 8.57898V7.55578L13.5856 7.46735V8.56635C13.5856 9.04638 13.6993 9.4085 13.9267 9.65272C14.1625 9.89694 14.5457 10.0191 15.0762 10.0191L14.912 11.4844ZM12.1961 4.89038H12.3224H13.9772V6.07781H12.3224H12.1961H10.5413V4.89038H12.1961Z" fill="black"/>
<path d="M9.32352 11.4845C9.39931 11.6108 9.4372 11.754 9.4372 11.914C9.4372 12.2508 9.3572 12.5793 9.19719 12.8993C9.04561 13.2193 8.80559 13.5098 8.47716 13.7709C7.96345 14.1751 7.26025 14.5036 6.36758 14.7562C5.48332 15.0173 4.60749 15.1478 3.74008 15.1478C2.55265 15.1478 1.66419 14.9036 1.07468 14.4152C0.485181 13.9351 0.19043 13.2404 0.19043 12.3308C0.19043 11.455 0.409388 10.276 0.847304 8.79382L1.84525 9.07173C1.52523 10.2507 1.36522 11.156 1.36522 11.7877C1.36522 12.3772 1.58839 12.8403 2.03473 13.1772C2.48107 13.5141 3.13373 13.6825 3.99272 13.6825C4.71697 13.6825 5.41174 13.5983 6.07704 13.4298C6.74233 13.2698 7.28131 13.0761 7.69396 12.8488C8.10661 12.6214 8.31294 12.4277 8.31294 12.2677C8.31294 12.1329 8.22451 12.015 8.04766 11.914C7.87923 11.8213 7.57606 11.7245 7.13814 11.6234C6.70865 11.5224 6.07704 11.4003 5.24331 11.2571L5.53385 9.95599C6.40126 9.99809 7.55501 10.0191 8.99508 10.0191H10.1067L9.94249 11.4845H9.32352Z" fill="black"/>
</svg>
