<svg width="50" height="50" viewBox="0 0 50 50" fill="none" xmlns="http://www.w3.org/2000/svg">
<g clip-path="url(#clip0_39_1387)">
<rect width="50" height="50" rx="25" fill="black"/>
<path d="M23.1126 17.8041C27.46 21.0306 30.5534 24.0931 32.3926 26.9916C34.2877 29.8353 35.2352 32.9252 35.2352 36.2611C35.2352 40.0892 34.2877 43.7533 32.3926 47.2533C30.4976 50.7533 27.683 53.3783 23.9486 55.1283C21.7749 56.1127 19.5455 56.7689 17.2603 57.097C15.0309 57.4252 12.5228 57.5892 9.73599 57.5892C9.45731 57.5892 9.17864 56.9603 8.89996 55.7025C8.62128 54.39 8.48193 52.558 8.48193 50.2064C8.48193 46.4877 8.81636 43.9174 9.4852 42.4955C10.0983 41.0736 10.7392 40.3627 11.4081 40.3627C14.8637 40.3627 17.5948 40.0892 19.6012 39.5424C21.6635 38.9955 22.6946 38.3119 22.6946 37.4916C22.6946 36.4525 21.6356 34.8119 19.5176 32.5697C17.3997 30.3275 13.7211 27.4564 8.48193 23.9564L11.4081 9.19079L51.9559 -8.03577L54.4641 5.08923L23.1126 17.8041Z" fill="#242424"/>
<path d="M24.2087 21.3142C26.3613 22.9165 27.8929 24.4373 28.8036 25.8767C29.742 27.2889 30.2111 28.8233 30.2111 30.4799C30.2111 32.381 29.742 34.2006 28.8036 35.9387C27.8653 37.6767 26.4717 38.9803 24.6226 39.8494C23.5463 40.3382 22.4424 40.6641 21.3109 40.827C20.2071 40.99 18.9652 41.0715 17.5853 41.0715C17.4473 41.0715 17.3093 40.7591 17.1713 40.1345C17.0334 39.4827 16.9644 38.573 16.9644 37.4052C16.9644 35.5584 17.1299 34.282 17.4611 33.5759C17.7647 32.8698 18.0821 32.5168 18.4132 32.5168C20.1243 32.5168 21.4765 32.381 22.47 32.1094C23.4911 31.8378 24.0017 31.4984 24.0017 31.091C24.0017 30.575 23.4773 29.7603 22.4286 28.6468C21.3799 27.5333 19.5585 26.1076 16.9644 24.3695L18.4132 17.0369L38.4903 8.48218L39.7322 15L24.2087 21.3142Z" fill="#A72F3B"/>
</g>
<defs>
<clipPath id="clip0_39_1387">
<rect width="50" height="50" rx="25" fill="white"/>
</clipPath>
</defs>
</svg>
