<svg width="142" height="243" viewBox="0 0 142 243" fill="none" xmlns="http://www.w3.org/2000/svg">
<path d="M141.638 0.186279H18.9185L7.49414 236.077H130.213L141.638 0.186279Z" fill="#B95962"/>
<path opacity="0.56" d="M137.974 3.42334H15.2549L3.83154 239.314H126.55L137.974 3.42334Z" fill="#D6D6D6"/>
<path opacity="0.07" d="M134.31 6.66052H11.5919L0.16748 242.551H122.886L134.31 6.66052Z" fill="#B95962"/>
<path d="M120.341 109.542H15.5958L14.7212 127.596H119.468L120.341 109.542Z" fill="white"/>
<path d="M73.2076 96.3744H16.2333L15.8423 104.452H72.8155L73.2076 96.3744Z" fill="#A72F3B"/>
<path d="M117.983 158.255H13.236L12.3613 176.309H117.108L117.983 158.255Z" fill="white"/>
<path opacity="0.47" d="M98.774 200.675H28.3359L27.2886 222.312H97.7257L98.774 200.675Z" fill="#A72F3B"/>
<path d="M94.063 225.663H23.6259C23.5926 225.663 23.5604 225.65 23.5364 225.628C23.5136 225.606 23.5011 225.575 23.5032 225.544L24.5515 203.907C24.5535 203.845 24.6087 203.797 24.6742 203.797H95.1113C95.1446 203.797 95.1768 203.811 95.2008 203.833C95.2236 203.855 95.2361 203.886 95.234 203.917L94.1857 225.554C94.1836 225.615 94.1285 225.663 94.063 225.663ZM23.7548 225.435H93.9444L94.9803 204.026H24.7907L23.7548 225.435Z" fill="white"/>
<path d="M60.8971 145.089H13.8735L13.4824 153.166H60.505L60.8971 145.089Z" fill="#A72F3B"/>
<path d="M97.4302 51.2439C97.1681 56.6497 95.0455 61.6417 91.6426 65.6967C86.504 71.8426 78.4554 75.8382 69.5957 75.8382C60.7359 75.8382 53.0846 71.8426 48.5419 65.6967C45.5322 61.6417 43.8931 56.6506 44.1552 51.2439C44.8135 37.6599 57.2727 26.6506 71.9783 26.6506C86.6943 26.6497 98.0875 37.6599 97.4302 51.2439Z" fill="white"/>
<path d="M99.9357 31.7981C99.866 33.2343 99.3023 34.561 98.3975 35.6381C97.032 37.2711 94.8938 38.3329 92.5392 38.3329C90.1847 38.3329 88.1525 37.2711 86.945 35.6381C86.1453 34.561 85.7095 33.2343 85.7792 31.7981C85.9539 28.1885 89.2653 25.2634 93.1726 25.2634C97.083 25.2634 100.11 28.1885 99.9357 31.7981Z" fill="#A72F3B"/>
<path d="M26.8757 118.569C26.7988 120.166 25.3324 121.461 23.6018 121.461C21.8712 121.461 20.5307 120.166 20.6076 118.569C20.6846 116.971 22.151 115.676 23.8816 115.676C25.6132 115.675 26.9537 116.971 26.8757 118.569Z" fill="#434343"/>
<path d="M40.9021 118.569C40.8251 120.166 39.3587 121.461 37.6282 121.461C35.8976 121.461 34.5571 120.166 34.634 118.569C34.711 116.971 36.1774 115.676 37.9079 115.676C39.6385 115.676 40.9801 116.971 40.9021 118.569Z" fill="#434343"/>
<path d="M54.9299 118.569C54.853 120.166 53.3866 121.461 51.656 121.461C49.9254 121.461 48.5849 120.166 48.6618 118.569C48.7388 116.971 50.2052 115.676 51.9358 115.676C53.6663 115.675 55.0069 116.971 54.9299 118.569Z" fill="#434343"/>
<path d="M24.5168 167.282C24.4399 168.879 22.9735 170.174 21.2429 170.174C19.5124 170.174 18.1718 168.879 18.2488 167.282C18.3257 165.685 19.7921 164.389 21.5227 164.389C23.2532 164.39 24.5938 165.685 24.5168 167.282Z" fill="#434343"/>
<path d="M38.5437 167.282C38.4667 168.879 37.0003 170.174 35.2698 170.174C33.5392 170.174 32.1987 168.879 32.2756 167.282C32.3526 165.685 33.819 164.389 35.5495 164.389C37.2811 164.39 38.6206 165.685 38.5437 167.282Z" fill="#434343"/>
<path d="M52.5701 167.282C52.4931 168.879 51.0267 170.174 49.2961 170.174C47.5656 170.174 46.225 168.879 46.302 167.282C46.3789 165.685 47.8453 164.389 49.5759 164.389C51.3065 164.389 52.6481 165.685 52.5701 167.282Z" fill="#434343"/>
<path d="M66.5974 167.282C66.5204 168.879 65.054 170.174 63.3235 170.174C61.5929 170.174 60.2524 168.879 60.3293 167.282C60.4063 165.685 61.8727 164.389 63.6032 164.389C65.3338 164.39 66.6744 165.685 66.5974 167.282Z" fill="#434343"/>
<path d="M80.6238 167.282C80.5468 168.879 79.0804 170.174 77.3499 170.174C75.6193 170.174 74.2787 168.879 74.3557 167.282C74.4327 165.685 75.899 164.389 77.6296 164.389C79.3602 164.39 80.7007 165.685 80.6238 167.282Z" fill="#434343"/>
<path d="M81.9657 43.0233C81.6995 48.5165 76.6597 52.9699 70.7077 52.9699C64.7569 52.9699 60.1476 48.5165 60.4138 43.0233C60.68 37.5293 65.7199 33.0768 71.6718 33.0768C77.6227 33.0768 82.232 37.5302 81.9657 43.0233Z" fill="#A72F3B"/>
<path d="M91.6427 65.6956C86.504 71.8416 78.4555 75.8371 69.5958 75.8371C60.736 75.8371 53.0847 71.8416 48.542 65.6956C53.5974 61.0492 61.5992 58.031 70.4589 58.031C79.3281 58.031 87.0376 61.0492 91.6427 65.6956Z" fill="#A72F3B"/>
<path opacity="0.1" d="M81.9657 43.0233C81.6995 48.5165 76.6597 52.9699 70.7077 52.9699C64.7569 52.9699 60.1476 48.5165 60.4138 43.0233C60.68 37.5293 65.7199 33.0768 71.6718 33.0768C77.6227 33.0768 82.232 37.5302 81.9657 43.0233Z" fill="white"/>
<path opacity="0.1" d="M91.6427 65.6956C86.504 71.8416 78.4555 75.8371 69.5958 75.8371C60.736 75.8371 53.0847 71.8416 48.542 65.6956C53.5974 61.0492 61.5992 58.031 70.4589 58.031C79.3281 58.031 87.0376 61.0492 91.6427 65.6956Z" fill="white"/>
</svg>
