<svg width="33" height="20" viewBox="0 0 33 20" fill="none" xmlns="http://www.w3.org/2000/svg">
<path d="M31.8313 3.12307C31.4633 1.89371 30.3791 0.925646 29.0022 0.597098C26.5067 9.03683e-07 16.5 5.96046e-07 16.5 5.96046e-07C16.5 5.96046e-07 6.49333 9.03683e-07 3.9978 0.597098C2.62102 0.925646 1.53665 1.89371 1.16868 3.12307C0.5 5.35118 0.5 10 0.5 10C0.5 10 0.5 14.6488 1.16868 16.8771C1.53665 18.1063 2.62102 19.0743 3.9978 19.403C6.49333 20 16.5 20 16.5 20C16.5 20 26.5067 20 29.0022 19.403C30.3791 19.0743 31.4633 18.1063 31.8313 16.8771C32.5 14.6488 32.5 10 32.5 10C32.5 10 32.5 5.35118 31.8313 3.12307Z" fill="white"/>
<path d="M13.2266 14.2188L21.5902 9.99819L13.2266 5.77722V14.2188Z" fill="#353535"/>
</svg>
