<svg width="25" height="25" viewBox="0 0 25 25" fill="none" xmlns="http://www.w3.org/2000/svg">
<path d="M12.5 0C5.87284 0 0.5 5.37284 0.5 12C0.5 17.0864 3.66049 21.4321 8.12469 23.1802C8.01605 22.2321 7.92716 20.7704 8.1642 19.7333C8.38148 18.7951 9.56667 13.7679 9.56667 13.7679C9.56667 13.7679 9.21111 13.0469 9.21111 11.9901C9.21111 10.321 10.179 9.07654 11.384 9.07654C12.4111 9.07654 12.9049 9.84691 12.9049 10.7654C12.9049 11.7926 12.2531 13.3333 11.9074 14.7654C11.621 15.9605 12.5099 16.9383 13.6852 16.9383C15.8185 16.9383 17.458 14.6864 17.458 11.4469C17.458 8.57284 15.3938 6.5679 12.4407 6.5679C9.02346 6.5679 7.01852 9.12593 7.01852 11.7728C7.01852 12.8 7.41358 13.9062 7.90741 14.5086C8.00617 14.6272 8.01605 14.7358 7.98642 14.8543C7.89753 15.2296 7.69012 16.0494 7.65062 16.2173C7.60123 16.4346 7.47284 16.484 7.24568 16.3753C5.74444 15.6741 4.80617 13.4914 4.80617 11.7235C4.80617 7.94074 7.55185 4.4642 12.737 4.4642C16.8951 4.4642 20.1346 7.42716 20.1346 11.3975C20.1346 15.5358 17.5272 18.8642 13.9123 18.8642C12.6975 18.8642 11.5519 18.2321 11.1667 17.4815C11.1667 17.4815 10.5642 19.7728 10.416 20.3358C10.1494 21.3827 9.41852 22.6864 8.92469 23.4864C10.0506 23.8321 11.2358 24.0198 12.4802 24.0198C19.1074 24.0198 24.4802 18.6469 24.4802 12.0198C24.5 5.37284 19.1272 0 12.5 0Z" fill="white"/>
</svg>
