<svg width="25" height="24" viewBox="0 0 25 24" fill="none" xmlns="http://www.w3.org/2000/svg">
<g clip-path="url(#clip0_9372_17926)">
<path d="M7.5301 0.0839251C6.2533 0.144165 5.38138 0.347925 4.61914 0.647445C3.83026 0.954885 3.16162 1.36745 2.49634 2.03513C1.83106 2.70281 1.42138 3.37193 1.1161 4.16201C0.820659 4.92593 0.620499 5.79857 0.564099 7.07609C0.507699 8.35361 0.495219 8.76425 0.501459 12.023C0.507699 15.2817 0.522099 15.6902 0.584019 16.9703C0.644979 18.2469 0.848019 19.1186 1.14754 19.881C1.45546 20.6699 1.86754 21.3383 2.53546 22.0038C3.20338 22.6694 3.87202 23.0781 4.66402 23.3838C5.42722 23.6788 6.3001 23.8799 7.57738 23.9358C8.85466 23.9918 9.26578 24.0047 12.5235 23.9985C15.7813 23.9922 16.1915 23.9778 17.4714 23.9171C18.7513 23.8564 19.6184 23.6519 20.3811 23.3538C21.17 23.0452 21.8389 22.6338 22.5039 21.9657C23.169 21.2975 23.5784 20.6279 23.8835 19.8374C24.1791 19.0742 24.38 18.2013 24.4355 16.925C24.4914 15.6441 24.5046 15.2351 24.4983 11.9769C24.4921 8.71865 24.4775 8.31017 24.4167 7.03049C24.356 5.75081 24.1527 4.88177 23.8535 4.11881C23.5451 3.32993 23.1335 2.66201 22.4658 1.99601C21.7981 1.33001 21.128 0.920805 20.3377 0.616485C19.574 0.321045 18.7016 0.119685 17.4243 0.0644851C16.1471 0.00928513 15.7359 -0.00487487 12.477 0.00136513C9.21802 0.00760513 8.81002 0.0215251 7.5301 0.0839251ZM7.67026 21.777C6.50026 21.7262 5.86498 21.5318 5.44162 21.369C4.88098 21.153 4.48162 20.8919 4.0597 20.4741C3.63778 20.0562 3.37858 19.6554 3.1597 19.096C2.9953 18.6726 2.7973 18.0381 2.74258 16.8681C2.68306 15.6035 2.67058 15.2238 2.66362 12.0201C2.65666 8.81633 2.6689 8.43713 2.72434 7.17209C2.77426 6.00305 2.96986 5.36705 3.13234 4.94393C3.34834 4.38257 3.6085 3.98393 4.0273 3.56225C4.4461 3.14057 4.8457 2.88089 5.40562 2.66201C5.8285 2.49689 6.46306 2.30057 7.63258 2.24489C8.8981 2.18489 9.2773 2.17289 12.4806 2.16593C15.6839 2.15897 16.064 2.17097 17.33 2.22665C18.4991 2.27753 19.1353 2.47121 19.5579 2.63465C20.1188 2.85065 20.5179 3.11009 20.9396 3.52961C21.3613 3.94913 21.6212 4.34729 21.8401 4.90841C22.0055 5.33009 22.2018 5.96441 22.257 7.13465C22.3172 8.40017 22.3309 8.77961 22.3367 11.9826C22.3424 15.1857 22.3311 15.5661 22.2757 16.8306C22.2246 18.0006 22.0307 18.6362 21.8677 19.06C21.6517 19.6204 21.3913 20.02 20.9723 20.4414C20.5532 20.8629 20.1541 21.1226 19.5939 21.3414C19.1715 21.5063 18.5363 21.7031 17.3677 21.7588C16.1022 21.8183 15.723 21.8308 12.5185 21.8378C9.31402 21.8447 8.93578 21.8318 7.67026 21.777ZM17.4529 5.58641C17.4534 5.87123 17.5383 6.14952 17.697 6.38607C17.8556 6.62262 18.0808 6.80682 18.3442 6.91535C18.6075 7.02389 18.8971 7.0519 19.1764 6.99583C19.4556 6.93976 19.712 6.80214 19.913 6.60037C20.114 6.3986 20.2507 6.14174 20.3058 5.86228C20.3608 5.58283 20.3317 5.29333 20.2222 5.03039C20.1127 4.76746 19.9277 4.5429 19.6906 4.38512C19.4534 4.22735 19.1748 4.14344 18.89 4.14401C18.5082 4.14477 18.1423 4.29715 17.8728 4.56764C17.6033 4.83813 17.4523 5.20458 17.4529 5.58641ZM6.3385 12.0119C6.34522 15.4151 9.10906 18.1677 12.5115 18.1612C15.914 18.1547 18.6685 15.3911 18.662 11.9879C18.6555 8.58473 15.891 5.83145 12.488 5.83817C9.08506 5.84489 6.33202 8.60921 6.3385 12.0119ZM8.49994 12.0076C8.49838 11.2165 8.73145 10.4426 9.16968 9.78395C9.60791 9.12528 10.2316 8.61134 10.9619 8.30714C11.6923 8.00294 12.4964 7.92213 13.2726 8.07494C14.0489 8.22774 14.7624 8.6073 15.3229 9.16562C15.8834 9.72393 16.2658 10.4359 16.4217 11.2115C16.5776 11.9872 16.4999 12.7916 16.1986 13.5231C15.8973 14.2547 15.3859 14.8804 14.7289 15.3212C14.072 15.7621 13.2991 15.9982 12.5079 15.9998C11.9826 16.0009 11.4622 15.8985 10.9765 15.6984C10.4908 15.4984 10.0492 15.2046 9.67699 14.8339C9.3048 14.4632 9.00929 14.0228 8.80733 13.5378C8.60537 13.0529 8.50092 12.5329 8.49994 12.0076Z" fill="white"/>
</g>
<defs>
<clipPath id="clip0_9372_17926">
<rect width="24" height="24" fill="white" transform="translate(0.5)"/>
</clipPath>
</defs>
</svg>
