<svg width="24" height="24" viewBox="0 0 24 24" fill="none" xmlns="http://www.w3.org/2000/svg">
<path d="M14.75 11.7501H9.25C8.84 11.7501 8.5 11.4101 8.5 11.0001C8.5 10.5901 8.84 10.2501 9.25 10.2501H14.75C15.16 10.2501 15.5 10.5901 15.5 11.0001C15.5 11.4101 15.16 11.7501 14.75 11.7501Z" fill="#434343"/>
<path d="M12.0001 22.7601C10.5201 22.7601 9.03005 22.2001 7.87005 21.0901C4.92005 18.2501 1.66005 13.7201 2.89005 8.33012C4.00005 3.44012 8.27005 1.25012 12.0001 1.25012C12.0001 1.25012 12.0001 1.25012 12.0101 1.25012C15.7401 1.25012 20.0101 3.44012 21.1201 8.34012C22.3401 13.7301 19.0801 18.2501 16.1301 21.0901C14.9701 22.2001 13.4801 22.7601 12.0001 22.7601ZM12.0001 2.75012C9.09005 2.75012 5.35005 4.30012 4.36005 8.66012C3.28005 13.3701 6.24005 17.4301 8.92005 20.0001C10.6501 21.6701 13.3601 21.6701 15.0901 20.0001C17.7601 17.4301 20.7201 13.3701 19.6601 8.66012C18.6601 4.30012 14.9101 2.75012 12.0001 2.75012Z" fill="#434343"/>
</svg>
