<svg width="24" height="24" viewBox="0 0 24 24" fill="none" xmlns="http://www.w3.org/2000/svg">
<path d="M17.44 15.3706C17.25 15.3706 17.06 15.3006 16.91 15.1506C16.62 14.8606 16.62 14.3806 16.91 14.0906L18.94 12.0606L16.91 10.0306C16.62 9.74055 16.62 9.26055 16.91 8.97055C17.2 8.68055 17.68 8.68055 17.97 8.97055L20.53 11.5306C20.82 11.8206 20.82 12.3006 20.53 12.5906L17.97 15.1506C17.82 15.3006 17.63 15.3706 17.44 15.3706Z" fill="#434343"/>
<path d="M19.93 12.8097H9.76001C9.35001 12.8097 9.01001 12.4697 9.01001 12.0597C9.01001 11.6497 9.35001 11.3097 9.76001 11.3097H19.93C20.34 11.3097 20.68 11.6497 20.68 12.0597C20.68 12.4697 20.34 12.8097 19.93 12.8097Z" fill="#434343"/>
<path d="M11.76 20.7501C6.61001 20.7501 3.01001 17.1501 3.01001 12.0001C3.01001 6.85012 6.61001 3.25012 11.76 3.25012C12.17 3.25012 12.51 3.59012 12.51 4.00012C12.51 4.41012 12.17 4.75012 11.76 4.75012C7.49001 4.75012 4.51001 7.73012 4.51001 12.0001C4.51001 16.2701 7.49001 19.2501 11.76 19.2501C12.17 19.2501 12.51 19.5901 12.51 20.0001C12.51 20.4101 12.17 20.7501 11.76 20.7501Z" fill="#434343"/>
</svg>
