<svg width="24" height="24" viewBox="0 0 24 24" fill="none" xmlns="http://www.w3.org/2000/svg">
<path d="M12 12.7501C8.83 12.7501 6.25 10.1701 6.25 7.00012C6.25 3.83012 8.83 1.25012 12 1.25012C15.17 1.25012 17.75 3.83012 17.75 7.00012C17.75 10.1701 15.17 12.7501 12 12.7501ZM12 2.75012C9.66 2.75012 7.75 4.66012 7.75 7.00012C7.75 9.34012 9.66 11.2501 12 11.2501C14.34 11.2501 16.25 9.34012 16.25 7.00012C16.25 4.66012 14.34 2.75012 12 2.75012Z" fill="#B95962"/>
<path d="M20.5901 22.7501C20.1801 22.7501 19.8401 22.4101 19.8401 22.0001C19.8401 18.5501 16.3202 15.7501 12.0002 15.7501C7.68015 15.7501 4.16016 18.5501 4.16016 22.0001C4.16016 22.4101 3.82016 22.7501 3.41016 22.7501C3.00016 22.7501 2.66016 22.4101 2.66016 22.0001C2.66016 17.7301 6.85015 14.2501 12.0002 14.2501C17.1502 14.2501 21.3401 17.7301 21.3401 22.0001C21.3401 22.4101 21.0001 22.7501 20.5901 22.7501Z" fill="#B95962"/>
</svg>
