<svg width="25" height="24" viewBox="0 0 25 24" fill="none" xmlns="http://www.w3.org/2000/svg">
<path d="M17.7399 22.75H7.25993C4.45993 22.75 2.67993 21.08 2.51993 18.29L1.99993 10.04C1.91993 8.79 2.34993 7.59 3.20993 6.68C4.05993 5.77 5.25993 5.25 6.49993 5.25C6.81993 5.25 7.12993 5.06 7.27993 4.76L7.99993 3.33C8.58993 2.16 10.0699 1.25 11.3599 1.25H13.6499C14.9399 1.25 16.4099 2.16 16.9999 3.32L17.7199 4.78C17.8699 5.06 18.1699 5.25 18.4999 5.25C19.7399 5.25 20.9399 5.77 21.7899 6.68C22.6499 7.6 23.0799 8.79 22.9999 10.04L22.4799 18.3C22.2999 21.13 20.5699 22.75 17.7399 22.75ZM11.3599 2.75C10.6199 2.75 9.67993 3.33 9.33993 4L8.61993 5.44C8.19993 6.25 7.38993 6.75 6.49993 6.75C5.65993 6.75 4.87993 7.09 4.29993 7.7C3.72993 8.31 3.43993 9.11 3.49993 9.94L4.01993 18.2C4.13993 20.22 5.22993 21.25 7.25993 21.25H17.7399C19.7599 21.25 20.8499 20.22 20.9799 18.2L21.4999 9.94C21.5499 9.11 21.2699 8.31 20.6999 7.7C20.1199 7.09 19.3399 6.75 18.4999 6.75C17.6099 6.75 16.7999 6.25 16.3799 5.46L15.6499 4C15.3199 3.34 14.3799 2.76 13.6399 2.76H11.3599V2.75Z" fill="white"/>
<path d="M14 8.75H11C10.59 8.75 10.25 8.41 10.25 8C10.25 7.59 10.59 7.25 11 7.25H14C14.41 7.25 14.75 7.59 14.75 8C14.75 8.41 14.41 8.75 14 8.75Z" fill="white"/>
<path d="M12.5 18.75C10.29 18.75 8.5 16.96 8.5 14.75C8.5 12.54 10.29 10.75 12.5 10.75C14.71 10.75 16.5 12.54 16.5 14.75C16.5 16.96 14.71 18.75 12.5 18.75ZM12.5 12.25C11.12 12.25 10 13.37 10 14.75C10 16.13 11.12 17.25 12.5 17.25C13.88 17.25 15 16.13 15 14.75C15 13.37 13.88 12.25 12.5 12.25Z" fill="white"/>
</svg>
